%TF.GenerationSoftware,KiCad,Pcbnew,(6.0.0-0)*%
%TF.CreationDate,2022-09-02T08:24:45-04:00*%
%TF.ProjectId,bnc_shield,626e635f-7368-4696-956c-642e6b696361,rev?*%
%TF.SameCoordinates,Original*%
%TF.FileFunction,Copper,L1,Top*%
%TF.FilePolarity,Positive*%
%FSLAX46Y46*%
G04 Gerber Fmt 4.6, Leading zero omitted, Abs format (unit mm)*
G04 Created by KiCad (PCBNEW (6.0.0-0)) date 2022-09-02 08:24:45*
%MOMM*%
%LPD*%
G01*
G04 APERTURE LIST*
%ADD10C,0.762000*%
%TA.AperFunction,NonConductor*%
%ADD11C,0.762000*%
%TD*%
%ADD12C,0.300000*%
%TA.AperFunction,NonConductor*%
%ADD13C,0.300000*%
%TD*%
%TA.AperFunction,ComponentPad*%
%ADD14O,1.727200X2.032000*%
%TD*%
%TA.AperFunction,ComponentPad*%
%ADD15C,4.064000*%
%TD*%
%TA.AperFunction,ComponentPad*%
%ADD16C,1.524000*%
%TD*%
%TA.AperFunction,ComponentPad*%
%ADD17O,1.600000X2.500000*%
%TD*%
%TA.AperFunction,ComponentPad*%
%ADD18O,3.500000X7.000000*%
%TD*%
%TA.AperFunction,ComponentPad*%
%ADD19R,1.700000X1.700000*%
%TD*%
%TA.AperFunction,ComponentPad*%
%ADD20O,1.700000X1.700000*%
%TD*%
%TA.AperFunction,SMDPad,CuDef*%
%ADD21R,1.000000X1.500000*%
%TD*%
%TA.AperFunction,ComponentPad*%
%ADD22O,2.500000X1.600000*%
%TD*%
%TA.AperFunction,ComponentPad*%
%ADD23O,7.000000X3.500000*%
%TD*%
%TA.AperFunction,SMDPad,CuDef*%
%ADD24R,1.550000X1.300000*%
%TD*%
%TA.AperFunction,ViaPad*%
%ADD25C,0.600000*%
%TD*%
%TA.AperFunction,Conductor*%
%ADD26C,0.250000*%
%TD*%
%TA.AperFunction,Conductor*%
%ADD27C,0.254000*%
%TD*%
%TA.AperFunction,Conductor*%
%ADD28C,0.508000*%
%TD*%
G04 APERTURE END LIST*
D10*
D11*
X116205000Y-88307333D02*
X119228809Y-88307333D01*
X115600238Y-90121619D02*
X117716904Y-83771619D01*
X119833571Y-90121619D01*
X121950238Y-90121619D02*
X121950238Y-85888285D01*
X121950238Y-87097809D02*
X122252619Y-86493047D01*
X122555000Y-86190666D01*
X123159761Y-85888285D01*
X123764523Y-85888285D01*
X128602619Y-90121619D02*
X128602619Y-83771619D01*
X128602619Y-89819238D02*
X127997857Y-90121619D01*
X126788333Y-90121619D01*
X126183571Y-89819238D01*
X125881190Y-89516857D01*
X125578809Y-88912095D01*
X125578809Y-87097809D01*
X125881190Y-86493047D01*
X126183571Y-86190666D01*
X126788333Y-85888285D01*
X127997857Y-85888285D01*
X128602619Y-86190666D01*
X134347857Y-85888285D02*
X134347857Y-90121619D01*
X131626428Y-85888285D02*
X131626428Y-89214476D01*
X131928809Y-89819238D01*
X132533571Y-90121619D01*
X133440714Y-90121619D01*
X134045476Y-89819238D01*
X134347857Y-89516857D01*
X137371666Y-90121619D02*
X137371666Y-85888285D01*
X137371666Y-83771619D02*
X137069285Y-84074000D01*
X137371666Y-84376380D01*
X137674047Y-84074000D01*
X137371666Y-83771619D01*
X137371666Y-84376380D01*
X140395476Y-85888285D02*
X140395476Y-90121619D01*
X140395476Y-86493047D02*
X140697857Y-86190666D01*
X141302619Y-85888285D01*
X142209761Y-85888285D01*
X142814523Y-86190666D01*
X143116904Y-86795428D01*
X143116904Y-90121619D01*
X147047857Y-90121619D02*
X146443095Y-89819238D01*
X146140714Y-89516857D01*
X145838333Y-88912095D01*
X145838333Y-87097809D01*
X146140714Y-86493047D01*
X146443095Y-86190666D01*
X147047857Y-85888285D01*
X147955000Y-85888285D01*
X148559761Y-86190666D01*
X148862142Y-86493047D01*
X149164523Y-87097809D01*
X149164523Y-88912095D01*
X148862142Y-89516857D01*
X148559761Y-89819238D01*
X147955000Y-90121619D01*
X147047857Y-90121619D01*
X158840714Y-86795428D02*
X159747857Y-87097809D01*
X160050238Y-87400190D01*
X160352619Y-88004952D01*
X160352619Y-88912095D01*
X160050238Y-89516857D01*
X159747857Y-89819238D01*
X159143095Y-90121619D01*
X156724047Y-90121619D01*
X156724047Y-83771619D01*
X158840714Y-83771619D01*
X159445476Y-84074000D01*
X159747857Y-84376380D01*
X160050238Y-84981142D01*
X160050238Y-85585904D01*
X159747857Y-86190666D01*
X159445476Y-86493047D01*
X158840714Y-86795428D01*
X156724047Y-86795428D01*
X163074047Y-90121619D02*
X163074047Y-83771619D01*
X166702619Y-90121619D01*
X166702619Y-83771619D01*
X173355000Y-89516857D02*
X173052619Y-89819238D01*
X172145476Y-90121619D01*
X171540714Y-90121619D01*
X170633571Y-89819238D01*
X170028809Y-89214476D01*
X169726428Y-88609714D01*
X169424047Y-87400190D01*
X169424047Y-86493047D01*
X169726428Y-85283523D01*
X170028809Y-84678761D01*
X170633571Y-84074000D01*
X171540714Y-83771619D01*
X172145476Y-83771619D01*
X173052619Y-84074000D01*
X173355000Y-84376380D01*
D12*
D13*
X161869428Y-70036428D02*
X162155142Y-70036428D01*
X162298000Y-69965000D01*
X162369428Y-69893571D01*
X162512285Y-69679285D01*
X162583714Y-69393571D01*
X162583714Y-68822142D01*
X162512285Y-68679285D01*
X162440857Y-68607857D01*
X162298000Y-68536428D01*
X162012285Y-68536428D01*
X161869428Y-68607857D01*
X161798000Y-68679285D01*
X161726571Y-68822142D01*
X161726571Y-69179285D01*
X161798000Y-69322142D01*
X161869428Y-69393571D01*
X162012285Y-69465000D01*
X162298000Y-69465000D01*
X162440857Y-69393571D01*
X162512285Y-69322142D01*
X162583714Y-69179285D01*
X161083714Y-68679285D02*
X161012285Y-68607857D01*
X161083714Y-68536428D01*
X161155142Y-68607857D01*
X161083714Y-68679285D01*
X161083714Y-68536428D01*
D12*
D13*
X181046571Y-127885000D02*
X181760857Y-127885000D01*
X180903714Y-128313571D02*
X181403714Y-126813571D01*
X181903714Y-128313571D01*
X182260857Y-126813571D02*
X183189428Y-126813571D01*
X182689428Y-127385000D01*
X182903714Y-127385000D01*
X183046571Y-127456428D01*
X183118000Y-127527857D01*
X183189428Y-127670714D01*
X183189428Y-128027857D01*
X183118000Y-128170714D01*
X183046571Y-128242142D01*
X182903714Y-128313571D01*
X182475142Y-128313571D01*
X182332285Y-128242142D01*
X182260857Y-128170714D01*
D12*
D13*
X140406571Y-127885000D02*
X141120857Y-127885000D01*
X140263714Y-128313571D02*
X140763714Y-126813571D01*
X141263714Y-128313571D01*
X142549428Y-128313571D02*
X141692285Y-128313571D01*
X142120857Y-128313571D02*
X142120857Y-126813571D01*
X141978000Y-127027857D01*
X141835142Y-127170714D01*
X141692285Y-127242142D01*
D12*
D13*
X160726571Y-127885000D02*
X161440857Y-127885000D01*
X160583714Y-128313571D02*
X161083714Y-126813571D01*
X161583714Y-128313571D01*
X162012285Y-126956428D02*
X162083714Y-126885000D01*
X162226571Y-126813571D01*
X162583714Y-126813571D01*
X162726571Y-126885000D01*
X162798000Y-126956428D01*
X162869428Y-127099285D01*
X162869428Y-127242142D01*
X162798000Y-127456428D01*
X161940857Y-128313571D01*
X162869428Y-128313571D01*
D12*
D13*
X142120857Y-68536428D02*
X141835142Y-68536428D01*
X141692285Y-68607857D01*
X141620857Y-68679285D01*
X141478000Y-68893571D01*
X141406571Y-69179285D01*
X141406571Y-69750714D01*
X141478000Y-69893571D01*
X141549428Y-69965000D01*
X141692285Y-70036428D01*
X141978000Y-70036428D01*
X142120857Y-69965000D01*
X142192285Y-69893571D01*
X142263714Y-69750714D01*
X142263714Y-69393571D01*
X142192285Y-69250714D01*
X142120857Y-69179285D01*
X141978000Y-69107857D01*
X141692285Y-69107857D01*
X141549428Y-69179285D01*
X141478000Y-69250714D01*
X141406571Y-69393571D01*
X140763714Y-68679285D02*
X140692285Y-68607857D01*
X140763714Y-68536428D01*
X140835142Y-68607857D01*
X140763714Y-68679285D01*
X140763714Y-68536428D01*
D12*
D13*
X181760857Y-70036428D02*
X182475142Y-70036428D01*
X182546571Y-69322142D01*
X182475142Y-69393571D01*
X182332285Y-69465000D01*
X181975142Y-69465000D01*
X181832285Y-69393571D01*
X181760857Y-69322142D01*
X181689428Y-69179285D01*
X181689428Y-68822142D01*
X181760857Y-68679285D01*
X181832285Y-68607857D01*
X181975142Y-68536428D01*
X182332285Y-68536428D01*
X182475142Y-68607857D01*
X182546571Y-68679285D01*
D12*
D13*
X120086571Y-127885000D02*
X120800857Y-127885000D01*
X119943714Y-128313571D02*
X120443714Y-126813571D01*
X120943714Y-128313571D01*
X121729428Y-126813571D02*
X121872285Y-126813571D01*
X122015142Y-126885000D01*
X122086571Y-126956428D01*
X122158000Y-127099285D01*
X122229428Y-127385000D01*
X122229428Y-127742142D01*
X122158000Y-128027857D01*
X122086571Y-128170714D01*
X122015142Y-128242142D01*
X121872285Y-128313571D01*
X121729428Y-128313571D01*
X121586571Y-128242142D01*
X121515142Y-128170714D01*
X121443714Y-128027857D01*
X121372285Y-127742142D01*
X121372285Y-127385000D01*
X121443714Y-127099285D01*
X121515142Y-126956428D01*
X121586571Y-126885000D01*
X121729428Y-126813571D01*
D12*
D13*
X121443714Y-68536428D02*
X122300857Y-68536428D01*
X121872285Y-68536428D02*
X121872285Y-70036428D01*
X122015142Y-69822142D01*
X122158000Y-69679285D01*
X122300857Y-69607857D01*
X120515142Y-70036428D02*
X120372285Y-70036428D01*
X120229428Y-69965000D01*
X120158000Y-69893571D01*
X120086571Y-69750714D01*
X120015142Y-69465000D01*
X120015142Y-69107857D01*
X120086571Y-68822142D01*
X120158000Y-68679285D01*
X120229428Y-68607857D01*
X120372285Y-68536428D01*
X120515142Y-68536428D01*
X120658000Y-68607857D01*
X120729428Y-68679285D01*
X120800857Y-68822142D01*
X120872285Y-69107857D01*
X120872285Y-69465000D01*
X120800857Y-69750714D01*
X120729428Y-69893571D01*
X120658000Y-69965000D01*
X120515142Y-70036428D01*
D12*
D13*
X110918857Y-72179571D02*
X110418857Y-71465285D01*
X110061714Y-72179571D02*
X110061714Y-70679571D01*
X110633142Y-70679571D01*
X110776000Y-70751000D01*
X110847428Y-70822428D01*
X110918857Y-70965285D01*
X110918857Y-71179571D01*
X110847428Y-71322428D01*
X110776000Y-71393857D01*
X110633142Y-71465285D01*
X110061714Y-71465285D01*
X112133142Y-72108142D02*
X111990285Y-72179571D01*
X111704571Y-72179571D01*
X111561714Y-72108142D01*
X111490285Y-71965285D01*
X111490285Y-71393857D01*
X111561714Y-71251000D01*
X111704571Y-71179571D01*
X111990285Y-71179571D01*
X112133142Y-71251000D01*
X112204571Y-71393857D01*
X112204571Y-71536714D01*
X111490285Y-71679571D01*
X112776000Y-72108142D02*
X112918857Y-72179571D01*
X113204571Y-72179571D01*
X113347428Y-72108142D01*
X113418857Y-71965285D01*
X113418857Y-71893857D01*
X113347428Y-71751000D01*
X113204571Y-71679571D01*
X112990285Y-71679571D01*
X112847428Y-71608142D01*
X112776000Y-71465285D01*
X112776000Y-71393857D01*
X112847428Y-71251000D01*
X112990285Y-71179571D01*
X113204571Y-71179571D01*
X113347428Y-71251000D01*
X114633142Y-72108142D02*
X114490285Y-72179571D01*
X114204571Y-72179571D01*
X114061714Y-72108142D01*
X113990285Y-71965285D01*
X113990285Y-71393857D01*
X114061714Y-71251000D01*
X114204571Y-71179571D01*
X114490285Y-71179571D01*
X114633142Y-71251000D01*
X114704571Y-71393857D01*
X114704571Y-71536714D01*
X113990285Y-71679571D01*
X115133142Y-71179571D02*
X115704571Y-71179571D01*
X115347428Y-70679571D02*
X115347428Y-71965285D01*
X115418857Y-72108142D01*
X115561714Y-72179571D01*
X115704571Y-72179571D01*
D12*
D13*
X180971000Y-112196428D02*
X180971000Y-111482142D01*
X181399571Y-112339285D02*
X179899571Y-111839285D01*
X181399571Y-111339285D01*
X180399571Y-110196428D02*
X181399571Y-110196428D01*
X179828142Y-110553571D02*
X180899571Y-110910714D01*
X180899571Y-109982142D01*
D12*
D13*
X179899571Y-88765000D02*
X179899571Y-87836428D01*
X180471000Y-88336428D01*
X180471000Y-88122142D01*
X180542428Y-87979285D01*
X180613857Y-87907857D01*
X180756714Y-87836428D01*
X181113857Y-87836428D01*
X181256714Y-87907857D01*
X181328142Y-87979285D01*
X181399571Y-88122142D01*
X181399571Y-88550714D01*
X181328142Y-88693571D01*
X181256714Y-88765000D01*
%TO.C,3 jump*%
G36*
X179238000Y-96185000D02*
G01*
X178738000Y-96185000D01*
X178738000Y-95585000D01*
X179238000Y-95585000D01*
X179238000Y-96185000D01*
G37*
%TO.C,A4 jump*%
G36*
X178700000Y-115235000D02*
G01*
X178200000Y-115235000D01*
X178200000Y-114635000D01*
X178700000Y-114635000D01*
X178700000Y-115235000D01*
G37*
%TD*%
D14*
%TO.P,P1,1,Pin_1*%
%TO.N,unconnected-(P1-Pad1)*%
X138938000Y-123825000D03*
%TO.P,P1,2,Pin_2*%
%TO.N,/IOREF*%
X141478000Y-123825000D03*
%TO.P,P1,3,Pin_3*%
%TO.N,/Reset*%
X144018000Y-123825000D03*
%TO.P,P1,4,Pin_4*%
%TO.N,+3V3*%
X146558000Y-123825000D03*
%TO.P,P1,5,Pin_5*%
%TO.N,+5V*%
X149098000Y-123825000D03*
%TO.P,P1,6,Pin_6*%
%TO.N,GND*%
X151638000Y-123825000D03*
%TO.P,P1,7,Pin_7*%
X154178000Y-123825000D03*
%TO.P,P1,8,Pin_8*%
%TO.N,/Vin*%
X156718000Y-123825000D03*
%TD*%
%TO.P,P2,1,Pin_1*%
%TO.N,/A0*%
X161798000Y-123825000D03*
%TO.P,P2,2,Pin_2*%
%TO.N,/A1*%
X164338000Y-123825000D03*
%TO.P,P2,3,Pin_3*%
%TO.N,/A2*%
X166878000Y-123825000D03*
%TO.P,P2,4,Pin_4*%
%TO.N,/A3*%
X169418000Y-123825000D03*
%TO.P,P2,5,Pin_5*%
%TO.N,/A4(SDA)*%
X171958000Y-123825000D03*
%TO.P,P2,6,Pin_6*%
%TO.N,/A5(SCL)*%
X174498000Y-123825000D03*
%TD*%
%TO.P,P3,1,Pin_1*%
%TO.N,/A5(SCL)*%
X129794000Y-75565000D03*
%TO.P,P3,2,Pin_2*%
%TO.N,/A4(SDA)*%
X132334000Y-75565000D03*
%TO.P,P3,3,Pin_3*%
%TO.N,/AREF*%
X134874000Y-75565000D03*
%TO.P,P3,4,Pin_4*%
%TO.N,GND*%
X137414000Y-75565000D03*
%TO.P,P3,5,Pin_5*%
%TO.N,/13(SCK)*%
X139954000Y-75565000D03*
%TO.P,P3,6,Pin_6*%
%TO.N,/12(MISO)*%
X142494000Y-75565000D03*
%TO.P,P3,7,Pin_7*%
%TO.N,/11(\u002A\u002A{slash}MOSI)*%
X145034000Y-75565000D03*
%TO.P,P3,8,Pin_8*%
%TO.N,/10(\u002A\u002A{slash}SS)*%
X147574000Y-75565000D03*
%TO.P,P3,9,Pin_9*%
%TO.N,/9(\u002A\u002A)*%
X150114000Y-75565000D03*
%TO.P,P3,10,Pin_10*%
%TO.N,/8*%
X152654000Y-75565000D03*
%TD*%
%TO.P,P4,1,Pin_1*%
%TO.N,/7*%
X156718000Y-75565000D03*
%TO.P,P4,2,Pin_2*%
%TO.N,/6(\u002A\u002A)*%
X159258000Y-75565000D03*
%TO.P,P4,3,Pin_3*%
%TO.N,/5(\u002A\u002A)*%
X161798000Y-75565000D03*
%TO.P,P4,4,Pin_4*%
%TO.N,/4*%
X164338000Y-75565000D03*
%TO.P,P4,5,Pin_5*%
%TO.N,/3(\u002A\u002A)*%
X166878000Y-75565000D03*
%TO.P,P4,6,Pin_6*%
%TO.N,/2*%
X169418000Y-75565000D03*
%TO.P,P4,7,Pin_7*%
%TO.N,/1(Tx)*%
X171958000Y-75565000D03*
%TO.P,P4,8,Pin_8*%
%TO.N,/0(Rx)*%
X174498000Y-75565000D03*
%TD*%
D15*
%TO.P,P5,1,Pin_1*%
%TO.N,unconnected-(P5-Pad1)*%
X124968000Y-123825000D03*
%TD*%
%TO.P,P7,1,Pin_1*%
%TO.N,unconnected-(P7-Pad1)*%
X126238000Y-75565000D03*
%TD*%
%TO.P,P8,1,Pin_1*%
%TO.N,unconnected-(P8-Pad1)*%
X177038000Y-90805000D03*
%TD*%
D16*
%TO.P,REF\u002A\u002A,1*%
%TO.N,N/C*%
X121158000Y-93345000D03*
%TO.P,REF\u002A\u002A,2*%
X123698000Y-93345000D03*
%TO.P,REF\u002A\u002A,3*%
X126238000Y-93345000D03*
%TO.P,REF\u002A\u002A,4*%
X128778000Y-93345000D03*
%TO.P,REF\u002A\u002A,5*%
X121158000Y-95885000D03*
%TO.P,REF\u002A\u002A,6*%
X123698000Y-95885000D03*
%TO.P,REF\u002A\u002A,7*%
X126238000Y-95885000D03*
%TO.P,REF\u002A\u002A,8*%
X128778000Y-95885000D03*
%TO.P,REF\u002A\u002A,9*%
X121158000Y-98425000D03*
%TO.P,REF\u002A\u002A,10*%
X123698000Y-98425000D03*
%TO.P,REF\u002A\u002A,11*%
X126238000Y-98425000D03*
%TO.P,REF\u002A\u002A,12*%
X128778000Y-98425000D03*
%TO.P,REF\u002A\u002A,13*%
X121158000Y-100965000D03*
%TO.P,REF\u002A\u002A,14*%
X123698000Y-100965000D03*
%TO.P,REF\u002A\u002A,15*%
X126238000Y-100965000D03*
%TO.P,REF\u002A\u002A,16*%
X128778000Y-100965000D03*
%TD*%
D17*
%TO.P,J10,1,In*%
%TO.N,/9(\u002A\u002A)*%
X141478000Y-65405000D03*
%TO.P,J10,2,Ext*%
%TO.N,GND*%
X138938000Y-65405000D03*
D18*
X146558000Y-60325000D03*
X136398000Y-60325000D03*
%TD*%
D19*
%TO.P,J6,1,Pin_1*%
%TO.N,/IOREF*%
X141473000Y-118745000D03*
D20*
%TO.P,J6,2,Pin_2*%
%TO.N,/Reset*%
X144013000Y-118745000D03*
%TO.P,J6,3,Pin_3*%
%TO.N,+3V3*%
X146553000Y-118745000D03*
%TO.P,J6,4,Pin_4*%
%TO.N,+5V*%
X149093000Y-118745000D03*
%TO.P,J6,5,Pin_5*%
%TO.N,GND*%
X151633000Y-118745000D03*
%TO.P,J6,6,Pin_6*%
X154173000Y-118745000D03*
%TO.P,J6,7,Pin_7*%
%TO.N,/Vin*%
X156713000Y-118745000D03*
%TD*%
D19*
%TO.P,3 alt,1,Pin_1*%
%TO.N,Net-(J16-Pad1)*%
X173228000Y-95885000D03*
%TD*%
D16*
%TO.P,REF\u002A\u002A,1*%
%TO.N,N/C*%
X161798000Y-103505000D03*
%TO.P,REF\u002A\u002A,2*%
X164338000Y-103505000D03*
%TO.P,REF\u002A\u002A,3*%
X166878000Y-103505000D03*
%TO.P,REF\u002A\u002A,4*%
X169418000Y-103505000D03*
%TO.P,REF\u002A\u002A,5*%
X161798000Y-106045000D03*
%TO.P,REF\u002A\u002A,6*%
X164338000Y-106045000D03*
%TO.P,REF\u002A\u002A,7*%
X166878000Y-106045000D03*
%TO.P,REF\u002A\u002A,8*%
X169418000Y-106045000D03*
%TO.P,REF\u002A\u002A,9*%
X161798000Y-108585000D03*
%TO.P,REF\u002A\u002A,10*%
X164338000Y-108585000D03*
%TO.P,REF\u002A\u002A,11*%
X166878000Y-108585000D03*
%TO.P,REF\u002A\u002A,12*%
X169418000Y-108585000D03*
%TO.P,REF\u002A\u002A,13*%
X161798000Y-111125000D03*
%TO.P,REF\u002A\u002A,14*%
X164338000Y-111125000D03*
%TO.P,REF\u002A\u002A,15*%
X166878000Y-111125000D03*
%TO.P,REF\u002A\u002A,16*%
X169418000Y-111125000D03*
%TD*%
D21*
%TO.P,3 jump,1,A*%
%TO.N,/3(\u002A\u002A)*%
X179638000Y-95885000D03*
%TO.P,3 jump,2,C*%
%TO.N,Net-(J7-Pad1)*%
X178338000Y-95885000D03*
%TO.P,3 jump,3,B*%
%TO.N,Net-(J16-Pad1)*%
X177038000Y-95885000D03*
%TD*%
D17*
%TO.P,J8,1,In*%
%TO.N,/5(\u002A\u002A)*%
X182118000Y-65405000D03*
D18*
%TO.P,J8,2,Ext*%
%TO.N,GND*%
X187198000Y-60325000D03*
X177038000Y-60325000D03*
D17*
X179578000Y-65405000D03*
%TD*%
D19*
%TO.P,J12,1,Pin_1*%
%TO.N,/A0*%
X161798000Y-118745000D03*
D20*
%TO.P,J12,2,Pin_2*%
%TO.N,/A1*%
X164338000Y-118745000D03*
%TO.P,J12,3,Pin_3*%
%TO.N,/A2*%
X166878000Y-118745000D03*
%TO.P,J12,4,Pin_4*%
%TO.N,/A3*%
X169418000Y-118745000D03*
%TO.P,J12,5,Pin_5*%
%TO.N,/A4(SDA)*%
X171958000Y-118745000D03*
%TO.P,J12,6,Pin_6*%
%TO.N,/A5(SCL)*%
X174498000Y-118745000D03*
%TD*%
D21*
%TO.P,A4 jump,1,A*%
%TO.N,/A4(SDA)*%
X179100000Y-114935000D03*
%TO.P,A4 jump,2,C*%
%TO.N,Net-(J5-Pad1)*%
X177800000Y-114935000D03*
%TO.P,A4 jump,3,B*%
%TO.N,Net-(J15-Pad1)*%
X176500000Y-114935000D03*
%TD*%
D16*
%TO.P,REF\u002A\u002A,1*%
%TO.N,N/C*%
X161798000Y-113665000D03*
%TO.P,REF\u002A\u002A,2*%
X164338000Y-113665000D03*
%TO.P,REF\u002A\u002A,3*%
X166878000Y-113665000D03*
%TO.P,REF\u002A\u002A,4*%
X169418000Y-113665000D03*
%TD*%
D17*
%TO.P,J11,1,In*%
%TO.N,/10(\u002A\u002A{slash}SS)*%
X121158000Y-65405000D03*
D18*
%TO.P,J11,2,Ext*%
%TO.N,GND*%
X126238000Y-60325000D03*
D17*
X118618000Y-65405000D03*
D18*
X116078000Y-60325000D03*
%TD*%
D22*
%TO.P,J7,1,In*%
%TO.N,Net-(J7-Pad1)*%
X184348000Y-88265000D03*
D23*
%TO.P,J7,2,Ext*%
%TO.N,GND*%
X189428000Y-83185000D03*
X189428000Y-93345000D03*
D22*
X184348000Y-85725000D03*
%TD*%
D16*
%TO.P,REF\u002A\u002A,1*%
%TO.N,N/C*%
X131318000Y-113665000D03*
%TO.P,REF\u002A\u002A,2*%
X133858000Y-113665000D03*
%TO.P,REF\u002A\u002A,3*%
X136398000Y-113665000D03*
%TO.P,REF\u002A\u002A,4*%
X138938000Y-113665000D03*
%TD*%
%TO.P,REF\u002A\u002A,1*%
%TO.N,N/C*%
X141478000Y-103505000D03*
%TO.P,REF\u002A\u002A,2*%
X144018000Y-103505000D03*
%TO.P,REF\u002A\u002A,3*%
X146558000Y-103505000D03*
%TO.P,REF\u002A\u002A,4*%
X149098000Y-103505000D03*
%TO.P,REF\u002A\u002A,5*%
X141478000Y-106045000D03*
%TO.P,REF\u002A\u002A,6*%
X144018000Y-106045000D03*
%TO.P,REF\u002A\u002A,7*%
X146558000Y-106045000D03*
%TO.P,REF\u002A\u002A,8*%
X149098000Y-106045000D03*
%TO.P,REF\u002A\u002A,9*%
X141478000Y-108585000D03*
%TO.P,REF\u002A\u002A,10*%
X144018000Y-108585000D03*
%TO.P,REF\u002A\u002A,11*%
X146558000Y-108585000D03*
%TO.P,REF\u002A\u002A,12*%
X149098000Y-108585000D03*
%TO.P,REF\u002A\u002A,13*%
X141478000Y-111125000D03*
%TO.P,REF\u002A\u002A,14*%
X144018000Y-111125000D03*
%TO.P,REF\u002A\u002A,15*%
X146558000Y-111125000D03*
%TO.P,REF\u002A\u002A,16*%
X149098000Y-111125000D03*
%TD*%
D22*
%TO.P,J5,1,In*%
%TO.N,Net-(J5-Pad1)*%
X184348000Y-111125000D03*
%TO.P,J5,2,Ext*%
%TO.N,GND*%
X184348000Y-108585000D03*
D23*
X189428000Y-116205000D03*
X189428000Y-106045000D03*
%TD*%
D16*
%TO.P,REF\u002A\u002A,1*%
%TO.N,N/C*%
X141478000Y-93345000D03*
%TO.P,REF\u002A\u002A,2*%
X144018000Y-93345000D03*
%TO.P,REF\u002A\u002A,3*%
X146558000Y-93345000D03*
%TO.P,REF\u002A\u002A,4*%
X149098000Y-93345000D03*
%TO.P,REF\u002A\u002A,5*%
X141478000Y-95885000D03*
%TO.P,REF\u002A\u002A,6*%
X144018000Y-95885000D03*
%TO.P,REF\u002A\u002A,7*%
X146558000Y-95885000D03*
%TO.P,REF\u002A\u002A,8*%
X149098000Y-95885000D03*
%TO.P,REF\u002A\u002A,9*%
X141478000Y-98425000D03*
%TO.P,REF\u002A\u002A,10*%
X144018000Y-98425000D03*
%TO.P,REF\u002A\u002A,11*%
X146558000Y-98425000D03*
%TO.P,REF\u002A\u002A,12*%
X149098000Y-98425000D03*
%TO.P,REF\u002A\u002A,13*%
X141478000Y-100965000D03*
%TO.P,REF\u002A\u002A,14*%
X144018000Y-100965000D03*
%TO.P,REF\u002A\u002A,15*%
X146558000Y-100965000D03*
%TO.P,REF\u002A\u002A,16*%
X149098000Y-100965000D03*
%TD*%
D19*
%TO.P,J14,1,Pin_1*%
%TO.N,/7*%
X156718000Y-80645000D03*
D20*
%TO.P,J14,2,Pin_2*%
%TO.N,/6(\u002A\u002A)*%
X159258000Y-80645000D03*
%TO.P,J14,3,Pin_3*%
%TO.N,/5(\u002A\u002A)*%
X161798000Y-80645000D03*
%TO.P,J14,4,Pin_4*%
%TO.N,/4*%
X164338000Y-80645000D03*
%TO.P,J14,5,Pin_5*%
%TO.N,/3(\u002A\u002A)*%
X166878000Y-80645000D03*
%TO.P,J14,6,Pin_6*%
%TO.N,/2*%
X169418000Y-80645000D03*
%TO.P,J14,7,Pin_7*%
%TO.N,/1(Tx)*%
X171958000Y-80645000D03*
%TO.P,J14,8,Pin_8*%
%TO.N,/0(Rx)*%
X174498000Y-80645000D03*
%TD*%
D16*
%TO.P,REF\u002A\u002A,1*%
%TO.N,N/C*%
X121158000Y-103505000D03*
%TO.P,REF\u002A\u002A,2*%
X123698000Y-103505000D03*
%TO.P,REF\u002A\u002A,3*%
X126238000Y-103505000D03*
%TO.P,REF\u002A\u002A,4*%
X128778000Y-103505000D03*
%TO.P,REF\u002A\u002A,5*%
X121158000Y-106045000D03*
%TO.P,REF\u002A\u002A,6*%
X123698000Y-106045000D03*
%TO.P,REF\u002A\u002A,7*%
X126238000Y-106045000D03*
%TO.P,REF\u002A\u002A,8*%
X128778000Y-106045000D03*
%TO.P,REF\u002A\u002A,9*%
X121158000Y-108585000D03*
%TO.P,REF\u002A\u002A,10*%
X123698000Y-108585000D03*
%TO.P,REF\u002A\u002A,11*%
X126238000Y-108585000D03*
%TO.P,REF\u002A\u002A,12*%
X128778000Y-108585000D03*
%TO.P,REF\u002A\u002A,13*%
X121158000Y-111125000D03*
%TO.P,REF\u002A\u002A,14*%
X123698000Y-111125000D03*
%TO.P,REF\u002A\u002A,15*%
X126238000Y-111125000D03*
%TO.P,REF\u002A\u002A,16*%
X128778000Y-111125000D03*
%TD*%
D17*
%TO.P,J1,1,In*%
%TO.N,/A0*%
X121158000Y-131445000D03*
D18*
%TO.P,J1,2,Ext*%
%TO.N,GND*%
X116078000Y-136525000D03*
X126238000Y-136525000D03*
D17*
X123698000Y-131445000D03*
%TD*%
%TO.P,J4,1,In*%
%TO.N,/A3*%
X182118000Y-131445000D03*
D18*
%TO.P,J4,2,Ext*%
%TO.N,GND*%
X187198000Y-136525000D03*
D17*
X184658000Y-131445000D03*
D18*
X177038000Y-136525000D03*
%TD*%
D19*
%TO.P,A4 alt,1,Pin_1*%
%TO.N,Net-(J15-Pad1)*%
X173228000Y-111125000D03*
%TD*%
D16*
%TO.P,REF\u002A\u002A,1*%
%TO.N,N/C*%
X151638000Y-113665000D03*
%TO.P,REF\u002A\u002A,2*%
X154178000Y-113665000D03*
%TO.P,REF\u002A\u002A,3*%
X156718000Y-113665000D03*
%TO.P,REF\u002A\u002A,4*%
X159258000Y-113665000D03*
%TD*%
D17*
%TO.P,J3,1,In*%
%TO.N,/A2*%
X161798000Y-131445000D03*
D18*
%TO.P,J3,2,Ext*%
%TO.N,GND*%
X166878000Y-136525000D03*
D17*
X164338000Y-131445000D03*
D18*
X156718000Y-136525000D03*
%TD*%
D16*
%TO.P,REF\u002A\u002A,1*%
%TO.N,N/C*%
X151638000Y-93345000D03*
%TO.P,REF\u002A\u002A,2*%
X154178000Y-93345000D03*
%TO.P,REF\u002A\u002A,3*%
X156718000Y-93345000D03*
%TO.P,REF\u002A\u002A,4*%
X159258000Y-93345000D03*
%TO.P,REF\u002A\u002A,5*%
X151638000Y-95885000D03*
%TO.P,REF\u002A\u002A,6*%
X154178000Y-95885000D03*
%TO.P,REF\u002A\u002A,7*%
X156718000Y-95885000D03*
%TO.P,REF\u002A\u002A,8*%
X159258000Y-95885000D03*
%TO.P,REF\u002A\u002A,9*%
X151638000Y-98425000D03*
%TO.P,REF\u002A\u002A,10*%
X154178000Y-98425000D03*
%TO.P,REF\u002A\u002A,11*%
X156718000Y-98425000D03*
%TO.P,REF\u002A\u002A,12*%
X159258000Y-98425000D03*
%TO.P,REF\u002A\u002A,13*%
X151638000Y-100965000D03*
%TO.P,REF\u002A\u002A,14*%
X154178000Y-100965000D03*
%TO.P,REF\u002A\u002A,15*%
X156718000Y-100965000D03*
%TO.P,REF\u002A\u002A,16*%
X159258000Y-100965000D03*
%TD*%
%TO.P,REF\u002A\u002A,1*%
%TO.N,N/C*%
X131318000Y-103505000D03*
%TO.P,REF\u002A\u002A,2*%
X133858000Y-103505000D03*
%TO.P,REF\u002A\u002A,3*%
X136398000Y-103505000D03*
%TO.P,REF\u002A\u002A,4*%
X138938000Y-103505000D03*
%TO.P,REF\u002A\u002A,5*%
X131318000Y-106045000D03*
%TO.P,REF\u002A\u002A,6*%
X133858000Y-106045000D03*
%TO.P,REF\u002A\u002A,7*%
X136398000Y-106045000D03*
%TO.P,REF\u002A\u002A,8*%
X138938000Y-106045000D03*
%TO.P,REF\u002A\u002A,9*%
X131318000Y-108585000D03*
%TO.P,REF\u002A\u002A,10*%
X133858000Y-108585000D03*
%TO.P,REF\u002A\u002A,11*%
X136398000Y-108585000D03*
%TO.P,REF\u002A\u002A,12*%
X138938000Y-108585000D03*
%TO.P,REF\u002A\u002A,13*%
X131318000Y-111125000D03*
%TO.P,REF\u002A\u002A,14*%
X133858000Y-111125000D03*
%TO.P,REF\u002A\u002A,15*%
X136398000Y-111125000D03*
%TO.P,REF\u002A\u002A,16*%
X138938000Y-111125000D03*
%TD*%
D17*
%TO.P,J9,1,In*%
%TO.N,/6(\u002A\u002A)*%
X161798000Y-65405000D03*
D18*
%TO.P,J9,2,Ext*%
%TO.N,GND*%
X156718000Y-60325000D03*
X166878000Y-60325000D03*
D17*
X159258000Y-65405000D03*
%TD*%
D16*
%TO.P,REF\u002A\u002A,1*%
%TO.N,N/C*%
X141478000Y-113665000D03*
%TO.P,REF\u002A\u002A,2*%
X144018000Y-113665000D03*
%TO.P,REF\u002A\u002A,3*%
X146558000Y-113665000D03*
%TO.P,REF\u002A\u002A,4*%
X149098000Y-113665000D03*
%TD*%
D19*
%TO.P,J13,1,Pin_1*%
%TO.N,/A5(SCL)*%
X129794000Y-80645000D03*
D20*
%TO.P,J13,2,Pin_2*%
%TO.N,/A4(SDA)*%
X132334000Y-80645000D03*
%TO.P,J13,3,Pin_3*%
%TO.N,/AREF*%
X134874000Y-80645000D03*
%TO.P,J13,4,Pin_4*%
%TO.N,GND*%
X137414000Y-80645000D03*
%TO.P,J13,5,Pin_5*%
%TO.N,/13(SCK)*%
X139954000Y-80645000D03*
%TO.P,J13,6,Pin_6*%
%TO.N,/12(MISO)*%
X142494000Y-80645000D03*
%TO.P,J13,7,Pin_7*%
%TO.N,/11(\u002A\u002A{slash}MOSI)*%
X145034000Y-80645000D03*
%TO.P,J13,8,Pin_8*%
%TO.N,/10(\u002A\u002A{slash}SS)*%
X147574000Y-80645000D03*
%TO.P,J13,9,Pin_9*%
%TO.N,/9(\u002A\u002A)*%
X150114000Y-80645000D03*
%TO.P,J13,10,Pin_10*%
%TO.N,/8*%
X152654000Y-80645000D03*
%TD*%
D16*
%TO.P,REF\u002A\u002A,1*%
%TO.N,N/C*%
X161798000Y-93345000D03*
%TO.P,REF\u002A\u002A,2*%
X164338000Y-93345000D03*
%TO.P,REF\u002A\u002A,3*%
X166878000Y-93345000D03*
%TO.P,REF\u002A\u002A,4*%
X169418000Y-93345000D03*
%TO.P,REF\u002A\u002A,5*%
X161798000Y-95885000D03*
%TO.P,REF\u002A\u002A,6*%
X164338000Y-95885000D03*
%TO.P,REF\u002A\u002A,7*%
X166878000Y-95885000D03*
%TO.P,REF\u002A\u002A,8*%
X169418000Y-95885000D03*
%TO.P,REF\u002A\u002A,9*%
X161798000Y-98425000D03*
%TO.P,REF\u002A\u002A,10*%
X164338000Y-98425000D03*
%TO.P,REF\u002A\u002A,11*%
X166878000Y-98425000D03*
%TO.P,REF\u002A\u002A,12*%
X169418000Y-98425000D03*
%TO.P,REF\u002A\u002A,13*%
X161798000Y-100965000D03*
%TO.P,REF\u002A\u002A,14*%
X164338000Y-100965000D03*
%TO.P,REF\u002A\u002A,15*%
X166878000Y-100965000D03*
%TO.P,REF\u002A\u002A,16*%
X169418000Y-100965000D03*
%TD*%
D17*
%TO.P,J2,1,In*%
%TO.N,/A1*%
X141478000Y-131445000D03*
%TO.P,J2,2,Ext*%
%TO.N,GND*%
X144018000Y-131445000D03*
D18*
X146558000Y-136525000D03*
X136398000Y-136525000D03*
%TD*%
D16*
%TO.P,REF\u002A\u002A,1*%
%TO.N,N/C*%
X121158000Y-113665000D03*
%TO.P,REF\u002A\u002A,2*%
X123698000Y-113665000D03*
%TO.P,REF\u002A\u002A,3*%
X126238000Y-113665000D03*
%TO.P,REF\u002A\u002A,4*%
X128778000Y-113665000D03*
%TD*%
%TO.P,REF\u002A\u002A,1*%
%TO.N,N/C*%
X151638000Y-103505000D03*
%TO.P,REF\u002A\u002A,2*%
X154178000Y-103505000D03*
%TO.P,REF\u002A\u002A,3*%
X156718000Y-103505000D03*
%TO.P,REF\u002A\u002A,4*%
X159258000Y-103505000D03*
%TO.P,REF\u002A\u002A,5*%
X151638000Y-106045000D03*
%TO.P,REF\u002A\u002A,6*%
X154178000Y-106045000D03*
%TO.P,REF\u002A\u002A,7*%
X156718000Y-106045000D03*
%TO.P,REF\u002A\u002A,8*%
X159258000Y-106045000D03*
%TO.P,REF\u002A\u002A,9*%
X151638000Y-108585000D03*
%TO.P,REF\u002A\u002A,10*%
X154178000Y-108585000D03*
%TO.P,REF\u002A\u002A,11*%
X156718000Y-108585000D03*
%TO.P,REF\u002A\u002A,12*%
X159258000Y-108585000D03*
%TO.P,REF\u002A\u002A,13*%
X151638000Y-111125000D03*
%TO.P,REF\u002A\u002A,14*%
X154178000Y-111125000D03*
%TO.P,REF\u002A\u002A,15*%
X156718000Y-111125000D03*
%TO.P,REF\u002A\u002A,16*%
X159258000Y-111125000D03*
%TD*%
%TO.P,REF\u002A\u002A,1*%
%TO.N,N/C*%
X131318000Y-93345000D03*
%TO.P,REF\u002A\u002A,2*%
X133858000Y-93345000D03*
%TO.P,REF\u002A\u002A,3*%
X136398000Y-93345000D03*
%TO.P,REF\u002A\u002A,4*%
X138938000Y-93345000D03*
%TO.P,REF\u002A\u002A,5*%
X131318000Y-95885000D03*
%TO.P,REF\u002A\u002A,6*%
X133858000Y-95885000D03*
%TO.P,REF\u002A\u002A,7*%
X136398000Y-95885000D03*
%TO.P,REF\u002A\u002A,8*%
X138938000Y-95885000D03*
%TO.P,REF\u002A\u002A,9*%
X131318000Y-98425000D03*
%TO.P,REF\u002A\u002A,10*%
X133858000Y-98425000D03*
%TO.P,REF\u002A\u002A,11*%
X136398000Y-98425000D03*
%TO.P,REF\u002A\u002A,12*%
X138938000Y-98425000D03*
%TO.P,REF\u002A\u002A,13*%
X131318000Y-100965000D03*
%TO.P,REF\u002A\u002A,14*%
X133858000Y-100965000D03*
%TO.P,REF\u002A\u002A,15*%
X136398000Y-100965000D03*
%TO.P,REF\u002A\u002A,16*%
X138938000Y-100965000D03*
%TD*%
D24*
%TO.P,SW1,1,1*%
%TO.N,GND*%
X109055000Y-73696000D03*
%TO.P,SW1,2,2*%
X117005000Y-73696000D03*
%TO.P,SW1,3,K*%
%TO.N,/Reset*%
X109055000Y-78196000D03*
%TO.P,SW1,4,A*%
X117005000Y-78196000D03*
%TD*%
D25*
%TO.N,GND*%
X113067232Y-73616532D03*
%TD*%
D26*
%TO.N,/Reset*%
X144018000Y-123825000D02*
X142494000Y-125349000D01*
X142494000Y-125349000D02*
X132334000Y-125349000D01*
X132334000Y-125349000D02*
X127000000Y-120015000D01*
X127000000Y-120015000D02*
X120650000Y-120015000D01*
X120650000Y-120015000D02*
X109055000Y-108420000D01*
X109055000Y-108420000D02*
X109055000Y-78196000D01*
D27*
%TO.N,/A0*%
X161798000Y-123977400D02*
X159974889Y-125800511D01*
X159974889Y-125800511D02*
X129850489Y-125800511D01*
X129850489Y-125800511D02*
X127000000Y-128651000D01*
X161798000Y-123825000D02*
X161798000Y-123977400D01*
X127000000Y-128651000D02*
X123642000Y-128651000D01*
X123642000Y-128651000D02*
X121158000Y-131135000D01*
D26*
%TO.N,/IOREF*%
X141473000Y-118745000D02*
X141473000Y-123820000D01*
X141473000Y-123820000D02*
X141478000Y-123825000D01*
%TO.N,/Reset*%
X144018000Y-123825000D02*
X144018000Y-118750000D01*
X109055000Y-78196000D02*
X117005000Y-78196000D01*
X144018000Y-118750000D02*
X144013000Y-118745000D01*
%TO.N,+5V*%
X149098000Y-118750000D02*
X149093000Y-118745000D01*
D28*
X149098000Y-123825000D02*
X149098000Y-118750000D01*
D27*
%TO.N,GND*%
X113357232Y-73906532D02*
X113067232Y-73616532D01*
X109092232Y-73906532D02*
X112777232Y-73906532D01*
D28*
X151638000Y-123825000D02*
X151638000Y-118750000D01*
X137414000Y-75565000D02*
X137414000Y-80645000D01*
D26*
X151638000Y-118750000D02*
X151633000Y-118745000D01*
D27*
X117042232Y-73906532D02*
X113357232Y-73906532D01*
D26*
X154178000Y-118750000D02*
X154173000Y-118745000D01*
D28*
X154178000Y-123825000D02*
X154178000Y-118750000D01*
%TO.N,/Vin*%
X156713000Y-118745000D02*
X156713000Y-123820000D01*
D26*
X156713000Y-123820000D02*
X156718000Y-123825000D01*
D27*
%TO.N,/A0*%
X161798000Y-123825000D02*
X161798000Y-118745000D01*
%TO.N,/A1*%
X162433000Y-125730000D02*
X164338000Y-123825000D01*
X141478000Y-131445000D02*
X146558000Y-126365000D01*
X160528000Y-126365000D02*
X161163000Y-125730000D01*
X161163000Y-125730000D02*
X162433000Y-125730000D01*
X146558000Y-126365000D02*
X160528000Y-126365000D01*
D26*
X164338000Y-118745000D02*
X164338000Y-123825000D01*
D27*
%TO.N,/A2*%
X166878000Y-126365000D02*
X166878000Y-123825000D01*
X166878000Y-123825000D02*
X166878000Y-118745000D01*
X162108000Y-131135000D02*
X166878000Y-126365000D01*
X161798000Y-131135000D02*
X162108000Y-131135000D01*
%TO.N,/A3*%
X176728000Y-131135000D02*
X169418000Y-123825000D01*
X182118000Y-131135000D02*
X176728000Y-131135000D01*
D26*
X169418000Y-118745000D02*
X169418000Y-123825000D01*
%TO.N,/AREF*%
X134874000Y-80645000D02*
X134874000Y-75565000D01*
%TO.N,/A4(SDA)*%
X171958000Y-118745000D02*
X171958000Y-122809000D01*
D27*
X173482000Y-117221000D02*
X171958000Y-118745000D01*
X178562000Y-117221000D02*
X173482000Y-117221000D01*
X179100000Y-114935000D02*
X179324000Y-115159000D01*
D26*
X132334000Y-80645000D02*
X132334000Y-75565000D01*
D27*
X179324000Y-116459000D02*
X178562000Y-117221000D01*
X179324000Y-115159000D02*
X179324000Y-116459000D01*
D26*
%TO.N,/A5(SCL)*%
X174498000Y-123825000D02*
X174498000Y-118745000D01*
X129794000Y-75565000D02*
X129794000Y-80645000D01*
D27*
%TO.N,/9(\u002A\u002A)*%
X150114000Y-74041000D02*
X150114000Y-75565000D01*
D26*
X150114000Y-80645000D02*
X150114000Y-75565000D01*
D27*
X141478000Y-65405000D02*
X150114000Y-74041000D01*
D26*
%TO.N,/8*%
X152654000Y-75565000D02*
X152654000Y-80645000D01*
%TO.N,/7*%
X156718000Y-80645000D02*
X156718000Y-75565000D01*
D27*
%TO.N,/6(\u002A\u002A)*%
X159258000Y-75565000D02*
X159258000Y-80645000D01*
X159258000Y-68580000D02*
X161798000Y-66040000D01*
X161798000Y-66040000D02*
X161798000Y-65405000D01*
X159258000Y-75565000D02*
X159258000Y-68580000D01*
%TO.N,/5(\u002A\u002A)*%
X161798000Y-73025000D02*
X161798000Y-75565000D01*
X164338000Y-70485000D02*
X161798000Y-73025000D01*
D26*
X161798000Y-80645000D02*
X161798000Y-75565000D01*
D27*
X182118000Y-65405000D02*
X177038000Y-70485000D01*
X177038000Y-70485000D02*
X164338000Y-70485000D01*
D26*
%TO.N,/4*%
X164338000Y-75565000D02*
X164338000Y-80645000D01*
D27*
%TO.N,/3(\u002A\u002A)*%
X187198000Y-88325000D02*
X187198000Y-86233000D01*
X169672000Y-72771000D02*
X166878000Y-75565000D01*
D26*
X166878000Y-80645000D02*
X166878000Y-75565000D01*
D27*
X176530000Y-72771000D02*
X169672000Y-72771000D01*
X180594000Y-79629000D02*
X180594000Y-76835000D01*
X179638000Y-95885000D02*
X187198000Y-88325000D01*
X180594000Y-76835000D02*
X176530000Y-72771000D01*
X187198000Y-86233000D02*
X180594000Y-79629000D01*
D26*
%TO.N,/2*%
X169418000Y-80645000D02*
X169418000Y-75565000D01*
%TO.N,/1(Tx)*%
X171958000Y-75565000D02*
X171958000Y-80645000D01*
%TO.N,/0(Rx)*%
X174498000Y-80645000D02*
X174498000Y-75565000D01*
%TO.N,/13(SCK)*%
X139954000Y-80645000D02*
X139954000Y-75565000D01*
D28*
%TO.N,+3V3*%
X146553000Y-118745000D02*
X146553000Y-123820000D01*
D26*
X146553000Y-123820000D02*
X146558000Y-123825000D01*
%TO.N,/12(MISO)*%
X142494000Y-75565000D02*
X142494000Y-80645000D01*
%TO.N,/11(\u002A\u002A{slash}MOSI)*%
X145034000Y-80645000D02*
X145034000Y-75565000D01*
D27*
%TO.N,/10(\u002A\u002A{slash}SS)*%
X147574000Y-75565000D02*
X147574000Y-80645000D01*
X123698000Y-65405000D02*
X130048000Y-71755000D01*
X145288000Y-71755000D02*
X147574000Y-74041000D01*
X130048000Y-71755000D02*
X145288000Y-71755000D01*
X121158000Y-65405000D02*
X123698000Y-65405000D01*
X147574000Y-74041000D02*
X147574000Y-75565000D01*
%TO.N,Net-(J5-Pad1)*%
X182619231Y-112853769D02*
X184348000Y-111125000D01*
X177800000Y-114935000D02*
X177800000Y-113411000D01*
X178357231Y-112853769D02*
X182619231Y-112853769D01*
X177800000Y-113411000D02*
X178357231Y-112853769D01*
%TO.N,Net-(J7-Pad1)*%
X184150000Y-88265000D02*
X184348000Y-88265000D01*
X178338000Y-94077000D02*
X184150000Y-88265000D01*
X178338000Y-95885000D02*
X178338000Y-94077000D01*
%TO.N,Net-(J15-Pad1)*%
X176500000Y-114397000D02*
X176500000Y-114935000D01*
X173228000Y-111125000D02*
X176500000Y-114397000D01*
%TO.N,Net-(J16-Pad1)*%
X177038000Y-95885000D02*
X173228000Y-95885000D01*
%TD*%
M02*
