M48
; DRILL file {KiCad (6.0.8-1)-1} date Wednesday, July 19, 2023 at 11:06:49 PM
; FORMAT={-:-/ absolute / inch / decimal}
; #@! TF.CreationDate,2023-07-19T23:06:49-04:00
; #@! TF.GenerationSoftware,Kicad,Pcbnew,(6.0.8-1)-1
; #@! TF.FileFunction,Plated,1,2,PTH
FMAT,2
INCH
; #@! TA.AperFunction,Plated,PTH,ViaDrill
T1C0.0157
; #@! TA.AperFunction,Plated,PTH,ComponentDrill
T2C0.0350
; #@! TA.AperFunction,Plated,PTH,ComponentDrill
T3C0.0394
; #@! TA.AperFunction,Plated,PTH,ComponentDrill
T4C0.0400
; #@! TA.AperFunction,Plated,PTH,ComponentDrill
T5C0.0472
; #@! TA.AperFunction,Plated,PTH,ComponentDrill
T6C0.0791
; #@! TA.AperFunction,Plated,PTH,ComponentDrill
T7C0.1200
%
G90
G05
T1
X4.5772Y-2.9228
T2
X4.67Y-2.575
X4.77Y-2.575
X4.77Y-5.175
X4.87Y-5.175
X5.47Y-2.575
X5.57Y-2.575
X5.57Y-5.175
X5.67Y-5.175
X6.27Y-2.575
X6.37Y-2.575
X6.37Y-5.175
X6.47Y-5.175
X7.07Y-2.575
X7.17Y-2.575
X7.17Y-5.175
X7.2578Y-3.375
X7.2578Y-3.475
X7.2578Y-4.275
X7.2578Y-4.375
X7.27Y-5.175
T3
X5.11Y-3.175
X5.21Y-3.175
X5.31Y-3.175
X5.41Y-3.175
X5.51Y-3.175
X5.5698Y-4.675
X5.61Y-3.175
X5.6698Y-4.675
X5.71Y-3.175
X5.7698Y-4.675
X5.81Y-3.175
X5.8698Y-4.675
X5.91Y-3.175
X5.9698Y-4.675
X6.01Y-3.175
X6.0698Y-4.675
X6.1698Y-4.675
X6.17Y-3.175
X6.27Y-3.175
X6.37Y-3.175
X6.37Y-4.675
X6.47Y-3.175
X6.47Y-4.675
X6.57Y-3.175
X6.57Y-4.675
X6.67Y-3.175
X6.67Y-4.675
X6.77Y-3.175
X6.77Y-4.675
X6.82Y-3.775
X6.82Y-4.375
X6.87Y-3.175
X6.87Y-4.675
T4
X5.0Y-3.8
X5.0Y-3.9
X5.0Y-4.0
X5.0Y-4.1
X5.0Y-4.2
X5.0Y-4.3
X5.0Y-4.4
X5.0Y-4.5
X5.1Y-3.8
X5.1Y-3.9
X5.1Y-4.0
X5.1Y-4.1
X5.1Y-4.2
X5.1Y-4.3
X5.1Y-4.4
X5.1Y-4.5
X5.11Y-2.975
X5.2Y-3.8
X5.2Y-3.9
X5.2Y-4.0
X5.2Y-4.1
X5.2Y-4.2
X5.2Y-4.3
X5.2Y-4.4
X5.2Y-4.5
X5.21Y-2.975
X5.3Y-3.8
X5.3Y-3.9
X5.3Y-4.0
X5.3Y-4.1
X5.3Y-4.2
X5.3Y-4.3
X5.3Y-4.4
X5.3Y-4.5
X5.31Y-2.975
X5.4Y-3.8
X5.4Y-3.9
X5.4Y-4.0
X5.4Y-4.1
X5.4Y-4.2
X5.4Y-4.3
X5.4Y-4.4
X5.4Y-4.5
X5.41Y-2.975
X5.47Y-4.875
X5.5Y-3.8
X5.5Y-3.9
X5.5Y-4.0
X5.5Y-4.1
X5.5Y-4.2
X5.5Y-4.3
X5.5Y-4.4
X5.5Y-4.5
X5.51Y-2.975
X5.57Y-4.875
X5.6Y-3.8
X5.6Y-3.9
X5.6Y-4.0
X5.6Y-4.1
X5.6Y-4.2
X5.6Y-4.3
X5.6Y-4.4
X5.6Y-4.5
X5.61Y-2.975
X5.67Y-4.875
X5.7Y-3.8
X5.7Y-3.9
X5.7Y-4.0
X5.7Y-4.1
X5.7Y-4.2
X5.7Y-4.3
X5.7Y-4.4
X5.7Y-4.5
X5.71Y-2.975
X5.77Y-4.875
X5.8Y-3.8
X5.8Y-3.9
X5.8Y-4.0
X5.8Y-4.1
X5.8Y-4.2
X5.8Y-4.3
X5.8Y-4.4
X5.8Y-4.5
X5.81Y-2.975
X5.87Y-4.875
X5.9Y-3.8
X5.9Y-3.9
X5.9Y-4.0
X5.9Y-4.1
X5.9Y-4.2
X5.9Y-4.3
X5.9Y-4.4
X5.9Y-4.5
X5.91Y-2.975
X5.97Y-4.875
X6.0Y-3.8
X6.0Y-3.9
X6.0Y-4.0
X6.0Y-4.1
X6.0Y-4.2
X6.0Y-4.3
X6.0Y-4.4
X6.0Y-4.5
X6.01Y-2.975
X6.07Y-4.875
X6.1Y-3.8
X6.1Y-3.9
X6.1Y-4.0
X6.1Y-4.1
X6.1Y-4.2
X6.1Y-4.3
X6.1Y-4.4
X6.1Y-4.5
X6.17Y-2.975
X6.17Y-4.875
X6.2Y-3.8
X6.2Y-3.9
X6.2Y-4.0
X6.2Y-4.1
X6.2Y-4.2
X6.2Y-4.3
X6.2Y-4.4
X6.2Y-4.5
X6.27Y-2.975
X6.3Y-3.8
X6.3Y-3.9
X6.3Y-4.0
X6.3Y-4.1
X6.3Y-4.2
X6.3Y-4.3
X6.3Y-4.4
X6.3Y-4.5
X6.37Y-2.975
X6.37Y-4.875
X6.4Y-3.8
X6.4Y-3.9
X6.4Y-4.0
X6.4Y-4.1
X6.4Y-4.2
X6.4Y-4.3
X6.4Y-4.4
X6.4Y-4.5
X6.47Y-2.975
X6.47Y-4.875
X6.5Y-3.8
X6.5Y-3.9
X6.5Y-4.0
X6.5Y-4.1
X6.5Y-4.2
X6.5Y-4.3
X6.5Y-4.4
X6.5Y-4.5
X6.57Y-2.975
X6.57Y-4.875
X6.67Y-2.975
X6.67Y-4.875
X6.77Y-2.975
X6.77Y-4.875
X6.87Y-2.975
X6.87Y-4.875
T5
X4.4441Y-2.9228
X4.4441Y-3.1
X4.7Y-2.9228
X4.7Y-3.1
T6
X4.57Y-2.375
X4.57Y-5.375
X4.97Y-2.375
X4.97Y-5.375
X5.37Y-2.375
X5.37Y-5.375
X5.77Y-2.375
X5.77Y-5.375
X6.17Y-2.375
X6.17Y-5.375
X6.57Y-2.375
X6.57Y-5.375
X6.97Y-2.375
X6.97Y-5.375
X7.37Y-2.375
X7.37Y-5.375
X7.4578Y-3.275
X7.4578Y-3.675
X7.4578Y-4.175
X7.4578Y-4.575
T7
X4.92Y-4.875
X4.97Y-2.975
X6.97Y-3.575
T0
M30
