%TF.GenerationSoftware,KiCad,Pcbnew,(6.0.0-0)*%
%TF.CreationDate,2022-09-02T08:24:46-04:00*%
%TF.ProjectId,bnc_shield,626e635f-7368-4696-956c-642e6b696361,rev?*%
%TF.SameCoordinates,Original*%
%TF.FileFunction,Legend,Bot*%
%TF.FilePolarity,Positive*%
%FSLAX46Y46*%
G04 Gerber Fmt 4.6, Leading zero omitted, Abs format (unit mm)*
G04 Created by KiCad (PCBNEW (6.0.0-0)) date 2022-09-02 08:24:46*
%MOMM*%
%LPD*%
G01*
G04 APERTURE LIST*
%ADD10C,0.300000*%
G04 APERTURE END LIST*
D10*
X125102285Y-117923571D02*
X124959428Y-117923571D01*
X124816571Y-117995000D01*
X124745142Y-118066428D01*
X124673714Y-118209285D01*
X124602285Y-118495000D01*
X124602285Y-118852142D01*
X124673714Y-119137857D01*
X124745142Y-119280714D01*
X124816571Y-119352142D01*
X124959428Y-119423571D01*
X125102285Y-119423571D01*
X125245142Y-119352142D01*
X125316571Y-119280714D01*
X125388000Y-119137857D01*
X125459428Y-118852142D01*
X125459428Y-118495000D01*
X125388000Y-118209285D01*
X125316571Y-118066428D01*
X125245142Y-117995000D01*
X125102285Y-117923571D01*
X123745142Y-118566428D02*
X123888000Y-118495000D01*
X123959428Y-118423571D01*
X124030857Y-118280714D01*
X124030857Y-118209285D01*
X123959428Y-118066428D01*
X123888000Y-117995000D01*
X123745142Y-117923571D01*
X123459428Y-117923571D01*
X123316571Y-117995000D01*
X123245142Y-118066428D01*
X123173714Y-118209285D01*
X123173714Y-118280714D01*
X123245142Y-118423571D01*
X123316571Y-118495000D01*
X123459428Y-118566428D01*
X123745142Y-118566428D01*
X123888000Y-118637857D01*
X123959428Y-118709285D01*
X124030857Y-118852142D01*
X124030857Y-119137857D01*
X123959428Y-119280714D01*
X123888000Y-119352142D01*
X123745142Y-119423571D01*
X123459428Y-119423571D01*
X123316571Y-119352142D01*
X123245142Y-119280714D01*
X123173714Y-119137857D01*
X123173714Y-118852142D01*
X123245142Y-118709285D01*
X123316571Y-118637857D01*
X123459428Y-118566428D01*
X121459428Y-117852142D02*
X122745142Y-119780714D01*
X121030857Y-118066428D02*
X120959428Y-117995000D01*
X120816571Y-117923571D01*
X120459428Y-117923571D01*
X120316571Y-117995000D01*
X120245142Y-118066428D01*
X120173714Y-118209285D01*
X120173714Y-118352142D01*
X120245142Y-118566428D01*
X121102285Y-119423571D01*
X120173714Y-119423571D01*
X119602285Y-118066428D02*
X119530857Y-117995000D01*
X119388000Y-117923571D01*
X119030857Y-117923571D01*
X118888000Y-117995000D01*
X118816571Y-118066428D01*
X118745142Y-118209285D01*
X118745142Y-118352142D01*
X118816571Y-118566428D01*
X119673714Y-119423571D01*
X118745142Y-119423571D01*
X117030857Y-117852142D02*
X118316571Y-119780714D01*
X116602285Y-118066428D02*
X116530857Y-117995000D01*
X116388000Y-117923571D01*
X116030857Y-117923571D01*
X115888000Y-117995000D01*
X115816571Y-118066428D01*
X115745142Y-118209285D01*
X115745142Y-118352142D01*
X115816571Y-118566428D01*
X116673714Y-119423571D01*
X115745142Y-119423571D01*
X115173714Y-118066428D02*
X115102285Y-117995000D01*
X114959428Y-117923571D01*
X114602285Y-117923571D01*
X114459428Y-117995000D01*
X114388000Y-118066428D01*
X114316571Y-118209285D01*
X114316571Y-118352142D01*
X114388000Y-118566428D01*
X115245142Y-119423571D01*
X114316571Y-119423571D01*
M02*
