%TF.GenerationSoftware,KiCad,Pcbnew,(6.0.8-1)-1*%
%TF.CreationDate,2023-07-19T23:06:52-04:00*%
%TF.ProjectId,bnc_shield,626e635f-7368-4696-956c-642e6b696361,rev?*%
%TF.SameCoordinates,Original*%
%TF.FileFunction,Legend,Bot*%
%TF.FilePolarity,Positive*%
%FSLAX46Y46*%
G04 Gerber Fmt 4.6, Leading zero omitted, Abs format (unit mm)*
G04 Created by KiCad (PCBNEW (6.0.8-1)-1) date 2023-07-19 23:06:52*
%MOMM*%
%LPD*%
G01*
G04 APERTURE LIST*
%ADD10C,0.127000*%
%ADD11C,0.300000*%
G04 APERTURE END LIST*
D10*
X157498142Y-116168714D02*
X157244142Y-116930714D01*
X156990142Y-116168714D01*
X156736142Y-116930714D02*
X156736142Y-116422714D01*
X156736142Y-116168714D02*
X156772428Y-116205000D01*
X156736142Y-116241285D01*
X156699857Y-116205000D01*
X156736142Y-116168714D01*
X156736142Y-116241285D01*
X156373285Y-116422714D02*
X156373285Y-116930714D01*
X156373285Y-116495285D02*
X156337000Y-116459000D01*
X156264428Y-116422714D01*
X156155571Y-116422714D01*
X156083000Y-116459000D01*
X156046714Y-116531571D01*
X156046714Y-116930714D01*
X147682857Y-116168714D02*
X147211142Y-116168714D01*
X147465142Y-116459000D01*
X147356285Y-116459000D01*
X147283714Y-116495285D01*
X147247428Y-116531571D01*
X147211142Y-116604142D01*
X147211142Y-116785571D01*
X147247428Y-116858142D01*
X147283714Y-116894428D01*
X147356285Y-116930714D01*
X147574000Y-116930714D01*
X147646571Y-116894428D01*
X147682857Y-116858142D01*
X146884571Y-116858142D02*
X146848285Y-116894428D01*
X146884571Y-116930714D01*
X146920857Y-116894428D01*
X146884571Y-116858142D01*
X146884571Y-116930714D01*
X146594285Y-116168714D02*
X146122571Y-116168714D01*
X146376571Y-116459000D01*
X146267714Y-116459000D01*
X146195142Y-116495285D01*
X146158857Y-116531571D01*
X146122571Y-116604142D01*
X146122571Y-116785571D01*
X146158857Y-116858142D01*
X146195142Y-116894428D01*
X146267714Y-116930714D01*
X146485428Y-116930714D01*
X146558000Y-116894428D01*
X146594285Y-116858142D01*
X145904857Y-116168714D02*
X145650857Y-116930714D01*
X145396857Y-116168714D01*
X145179142Y-83402714D02*
X145614571Y-83402714D01*
X145396857Y-83402714D02*
X145396857Y-82640714D01*
X145469428Y-82749571D01*
X145542000Y-82822142D01*
X145614571Y-82858428D01*
X144453428Y-83402714D02*
X144888857Y-83402714D01*
X144671142Y-83402714D02*
X144671142Y-82640714D01*
X144743714Y-82749571D01*
X144816285Y-82822142D01*
X144888857Y-82858428D01*
X167132000Y-82640714D02*
X166660285Y-82640714D01*
X166914285Y-82931000D01*
X166805428Y-82931000D01*
X166732857Y-82967285D01*
X166696571Y-83003571D01*
X166660285Y-83076142D01*
X166660285Y-83257571D01*
X166696571Y-83330142D01*
X166732857Y-83366428D01*
X166805428Y-83402714D01*
X167023142Y-83402714D01*
X167095714Y-83366428D01*
X167132000Y-83330142D01*
X149243142Y-116168714D02*
X149606000Y-116168714D01*
X149642285Y-116531571D01*
X149606000Y-116495285D01*
X149533428Y-116459000D01*
X149352000Y-116459000D01*
X149279428Y-116495285D01*
X149243142Y-116531571D01*
X149206857Y-116604142D01*
X149206857Y-116785571D01*
X149243142Y-116858142D01*
X149279428Y-116894428D01*
X149352000Y-116930714D01*
X149533428Y-116930714D01*
X149606000Y-116894428D01*
X149642285Y-116858142D01*
X148989142Y-116168714D02*
X148735142Y-116930714D01*
X148481142Y-116168714D01*
X172502285Y-116713000D02*
X172139428Y-116713000D01*
X172574857Y-116930714D02*
X172320857Y-116168714D01*
X172066857Y-116930714D01*
X171486285Y-116422714D02*
X171486285Y-116930714D01*
X171667714Y-116132428D02*
X171849142Y-116676714D01*
X171377428Y-116676714D01*
D11*
X127888000Y-117923571D02*
X127388000Y-119423571D01*
X126888000Y-117923571D01*
X126459428Y-118066428D02*
X126388000Y-117995000D01*
X126245142Y-117923571D01*
X125888000Y-117923571D01*
X125745142Y-117995000D01*
X125673714Y-118066428D01*
X125602285Y-118209285D01*
X125602285Y-118352142D01*
X125673714Y-118566428D01*
X126530857Y-119423571D01*
X125602285Y-119423571D01*
X124888000Y-119352142D02*
X124888000Y-119423571D01*
X124959428Y-119566428D01*
X125030857Y-119637857D01*
X122816571Y-117923571D02*
X122673714Y-117923571D01*
X122530857Y-117995000D01*
X122459428Y-118066428D01*
X122388000Y-118209285D01*
X122316571Y-118495000D01*
X122316571Y-118852142D01*
X122388000Y-119137857D01*
X122459428Y-119280714D01*
X122530857Y-119352142D01*
X122673714Y-119423571D01*
X122816571Y-119423571D01*
X122959428Y-119352142D01*
X123030857Y-119280714D01*
X123102285Y-119137857D01*
X123173714Y-118852142D01*
X123173714Y-118495000D01*
X123102285Y-118209285D01*
X123030857Y-118066428D01*
X122959428Y-117995000D01*
X122816571Y-117923571D01*
X121816571Y-117923571D02*
X120816571Y-117923571D01*
X121459428Y-119423571D01*
X119173714Y-117852142D02*
X120459428Y-119780714D01*
X117888000Y-119423571D02*
X118745142Y-119423571D01*
X118316571Y-119423571D02*
X118316571Y-117923571D01*
X118459428Y-118137857D01*
X118602285Y-118280714D01*
X118745142Y-118352142D01*
X117388000Y-117923571D02*
X116388000Y-117923571D01*
X117030857Y-119423571D01*
X114745142Y-117852142D02*
X116030857Y-119780714D01*
X114316571Y-118066428D02*
X114245142Y-117995000D01*
X114102285Y-117923571D01*
X113745142Y-117923571D01*
X113602285Y-117995000D01*
X113530857Y-118066428D01*
X113459428Y-118209285D01*
X113459428Y-118352142D01*
X113530857Y-118566428D01*
X114388000Y-119423571D01*
X113459428Y-119423571D01*
X112959428Y-117923571D02*
X112030857Y-117923571D01*
X112530857Y-118495000D01*
X112316571Y-118495000D01*
X112173714Y-118566428D01*
X112102285Y-118637857D01*
X112030857Y-118780714D01*
X112030857Y-119137857D01*
X112102285Y-119280714D01*
X112173714Y-119352142D01*
X112316571Y-119423571D01*
X112745142Y-119423571D01*
X112888000Y-119352142D01*
X112959428Y-119280714D01*
D10*
X144435285Y-116930714D02*
X144689285Y-116567857D01*
X144870714Y-116930714D02*
X144870714Y-116168714D01*
X144580428Y-116168714D01*
X144507857Y-116205000D01*
X144471571Y-116241285D01*
X144435285Y-116313857D01*
X144435285Y-116422714D01*
X144471571Y-116495285D01*
X144507857Y-116531571D01*
X144580428Y-116567857D01*
X144870714Y-116567857D01*
X144145000Y-116894428D02*
X144036142Y-116930714D01*
X143854714Y-116930714D01*
X143782142Y-116894428D01*
X143745857Y-116858142D01*
X143709571Y-116785571D01*
X143709571Y-116713000D01*
X143745857Y-116640428D01*
X143782142Y-116604142D01*
X143854714Y-116567857D01*
X143999857Y-116531571D01*
X144072428Y-116495285D01*
X144108714Y-116459000D01*
X144145000Y-116386428D01*
X144145000Y-116313857D01*
X144108714Y-116241285D01*
X144072428Y-116205000D01*
X143999857Y-116168714D01*
X143818428Y-116168714D01*
X143709571Y-116205000D01*
X143491857Y-116168714D02*
X143056428Y-116168714D01*
X143274142Y-116930714D02*
X143274142Y-116168714D01*
X171740285Y-83402714D02*
X172175714Y-83402714D01*
X171958000Y-83402714D02*
X171958000Y-82640714D01*
X172030571Y-82749571D01*
X172103142Y-82822142D01*
X172175714Y-82858428D01*
X156972000Y-82640714D02*
X156464000Y-82640714D01*
X156790571Y-83402714D01*
X152218571Y-116205000D02*
X152291142Y-116168714D01*
X152400000Y-116168714D01*
X152508857Y-116205000D01*
X152581428Y-116277571D01*
X152617714Y-116350142D01*
X152654000Y-116495285D01*
X152654000Y-116604142D01*
X152617714Y-116749285D01*
X152581428Y-116821857D01*
X152508857Y-116894428D01*
X152400000Y-116930714D01*
X152327428Y-116930714D01*
X152218571Y-116894428D01*
X152182285Y-116858142D01*
X152182285Y-116604142D01*
X152327428Y-116604142D01*
X151855714Y-116930714D02*
X151855714Y-116168714D01*
X151420285Y-116930714D01*
X151420285Y-116168714D01*
X151057428Y-116930714D02*
X151057428Y-116168714D01*
X150876000Y-116168714D01*
X150767142Y-116205000D01*
X150694571Y-116277571D01*
X150658285Y-116350142D01*
X150622000Y-116495285D01*
X150622000Y-116604142D01*
X150658285Y-116749285D01*
X150694571Y-116821857D01*
X150767142Y-116894428D01*
X150876000Y-116930714D01*
X151057428Y-116930714D01*
X169635714Y-82713285D02*
X169599428Y-82677000D01*
X169526857Y-82640714D01*
X169345428Y-82640714D01*
X169272857Y-82677000D01*
X169236571Y-82713285D01*
X169200285Y-82785857D01*
X169200285Y-82858428D01*
X169236571Y-82967285D01*
X169672000Y-83402714D01*
X169200285Y-83402714D01*
X135835571Y-83185000D02*
X135472714Y-83185000D01*
X135908142Y-83402714D02*
X135654142Y-82640714D01*
X135400142Y-83402714D01*
X135146142Y-83402714D02*
X135146142Y-82894714D01*
X135146142Y-83039857D02*
X135109857Y-82967285D01*
X135073571Y-82931000D01*
X135001000Y-82894714D01*
X134928428Y-82894714D01*
X134384142Y-83366428D02*
X134456714Y-83402714D01*
X134601857Y-83402714D01*
X134674428Y-83366428D01*
X134710714Y-83293857D01*
X134710714Y-83003571D01*
X134674428Y-82931000D01*
X134601857Y-82894714D01*
X134456714Y-82894714D01*
X134384142Y-82931000D01*
X134347857Y-83003571D01*
X134347857Y-83076142D01*
X134710714Y-83148714D01*
X134130142Y-82894714D02*
X133839857Y-82894714D01*
X134021285Y-83402714D02*
X134021285Y-82749571D01*
X133985000Y-82677000D01*
X133912428Y-82640714D01*
X133839857Y-82640714D01*
X130701142Y-83366428D02*
X130592285Y-83402714D01*
X130410857Y-83402714D01*
X130338285Y-83366428D01*
X130302000Y-83330142D01*
X130265714Y-83257571D01*
X130265714Y-83185000D01*
X130302000Y-83112428D01*
X130338285Y-83076142D01*
X130410857Y-83039857D01*
X130556000Y-83003571D01*
X130628571Y-82967285D01*
X130664857Y-82931000D01*
X130701142Y-82858428D01*
X130701142Y-82785857D01*
X130664857Y-82713285D01*
X130628571Y-82677000D01*
X130556000Y-82640714D01*
X130374571Y-82640714D01*
X130265714Y-82677000D01*
X129503714Y-83330142D02*
X129540000Y-83366428D01*
X129648857Y-83402714D01*
X129721428Y-83402714D01*
X129830285Y-83366428D01*
X129902857Y-83293857D01*
X129939142Y-83221285D01*
X129975428Y-83076142D01*
X129975428Y-82967285D01*
X129939142Y-82822142D01*
X129902857Y-82749571D01*
X129830285Y-82677000D01*
X129721428Y-82640714D01*
X129648857Y-82640714D01*
X129540000Y-82677000D01*
X129503714Y-82713285D01*
X128814285Y-83402714D02*
X129177142Y-83402714D01*
X129177142Y-82640714D01*
X161616571Y-82640714D02*
X161979428Y-82640714D01*
X162015714Y-83003571D01*
X161979428Y-82967285D01*
X161906857Y-82931000D01*
X161725428Y-82931000D01*
X161652857Y-82967285D01*
X161616571Y-83003571D01*
X161580285Y-83076142D01*
X161580285Y-83257571D01*
X161616571Y-83330142D01*
X161652857Y-83366428D01*
X161725428Y-83402714D01*
X161906857Y-83402714D01*
X161979428Y-83366428D01*
X162015714Y-83330142D01*
X162342285Y-116713000D02*
X161979428Y-116713000D01*
X162414857Y-116930714D02*
X162160857Y-116168714D01*
X161906857Y-116930714D01*
X161507714Y-116168714D02*
X161435142Y-116168714D01*
X161362571Y-116205000D01*
X161326285Y-116241285D01*
X161290000Y-116313857D01*
X161253714Y-116459000D01*
X161253714Y-116640428D01*
X161290000Y-116785571D01*
X161326285Y-116858142D01*
X161362571Y-116894428D01*
X161435142Y-116930714D01*
X161507714Y-116930714D01*
X161580285Y-116894428D01*
X161616571Y-116858142D01*
X161652857Y-116785571D01*
X161689142Y-116640428D01*
X161689142Y-116459000D01*
X161652857Y-116313857D01*
X161616571Y-116241285D01*
X161580285Y-116205000D01*
X161507714Y-116168714D01*
X140099142Y-83402714D02*
X140534571Y-83402714D01*
X140316857Y-83402714D02*
X140316857Y-82640714D01*
X140389428Y-82749571D01*
X140462000Y-82822142D01*
X140534571Y-82858428D01*
X139845142Y-82640714D02*
X139373428Y-82640714D01*
X139627428Y-82931000D01*
X139518571Y-82931000D01*
X139446000Y-82967285D01*
X139409714Y-83003571D01*
X139373428Y-83076142D01*
X139373428Y-83257571D01*
X139409714Y-83330142D01*
X139446000Y-83366428D01*
X139518571Y-83402714D01*
X139736285Y-83402714D01*
X139808857Y-83366428D01*
X139845142Y-83330142D01*
X175042285Y-116713000D02*
X174679428Y-116713000D01*
X175114857Y-116930714D02*
X174860857Y-116168714D01*
X174606857Y-116930714D01*
X173990000Y-116168714D02*
X174352857Y-116168714D01*
X174389142Y-116531571D01*
X174352857Y-116495285D01*
X174280285Y-116459000D01*
X174098857Y-116459000D01*
X174026285Y-116495285D01*
X173990000Y-116531571D01*
X173953714Y-116604142D01*
X173953714Y-116785571D01*
X173990000Y-116858142D01*
X174026285Y-116894428D01*
X174098857Y-116930714D01*
X174280285Y-116930714D01*
X174352857Y-116894428D01*
X174389142Y-116858142D01*
X137994571Y-82677000D02*
X138067142Y-82640714D01*
X138176000Y-82640714D01*
X138284857Y-82677000D01*
X138357428Y-82749571D01*
X138393714Y-82822142D01*
X138430000Y-82967285D01*
X138430000Y-83076142D01*
X138393714Y-83221285D01*
X138357428Y-83293857D01*
X138284857Y-83366428D01*
X138176000Y-83402714D01*
X138103428Y-83402714D01*
X137994571Y-83366428D01*
X137958285Y-83330142D01*
X137958285Y-83076142D01*
X138103428Y-83076142D01*
X137631714Y-83402714D02*
X137631714Y-82640714D01*
X137196285Y-83402714D01*
X137196285Y-82640714D01*
X136833428Y-83402714D02*
X136833428Y-82640714D01*
X136652000Y-82640714D01*
X136543142Y-82677000D01*
X136470571Y-82749571D01*
X136434285Y-82822142D01*
X136398000Y-82967285D01*
X136398000Y-83076142D01*
X136434285Y-83221285D01*
X136470571Y-83293857D01*
X136543142Y-83366428D01*
X136652000Y-83402714D01*
X136833428Y-83402714D01*
X174534285Y-82640714D02*
X174461714Y-82640714D01*
X174389142Y-82677000D01*
X174352857Y-82713285D01*
X174316571Y-82785857D01*
X174280285Y-82931000D01*
X174280285Y-83112428D01*
X174316571Y-83257571D01*
X174352857Y-83330142D01*
X174389142Y-83366428D01*
X174461714Y-83402714D01*
X174534285Y-83402714D01*
X174606857Y-83366428D01*
X174643142Y-83330142D01*
X174679428Y-83257571D01*
X174715714Y-83112428D01*
X174715714Y-82931000D01*
X174679428Y-82785857D01*
X174643142Y-82713285D01*
X174606857Y-82677000D01*
X174534285Y-82640714D01*
X164192857Y-82894714D02*
X164192857Y-83402714D01*
X164374285Y-82604428D02*
X164555714Y-83148714D01*
X164084000Y-83148714D01*
X154758571Y-116205000D02*
X154831142Y-116168714D01*
X154940000Y-116168714D01*
X155048857Y-116205000D01*
X155121428Y-116277571D01*
X155157714Y-116350142D01*
X155194000Y-116495285D01*
X155194000Y-116604142D01*
X155157714Y-116749285D01*
X155121428Y-116821857D01*
X155048857Y-116894428D01*
X154940000Y-116930714D01*
X154867428Y-116930714D01*
X154758571Y-116894428D01*
X154722285Y-116858142D01*
X154722285Y-116604142D01*
X154867428Y-116604142D01*
X154395714Y-116930714D02*
X154395714Y-116168714D01*
X153960285Y-116930714D01*
X153960285Y-116168714D01*
X153597428Y-116930714D02*
X153597428Y-116168714D01*
X153416000Y-116168714D01*
X153307142Y-116205000D01*
X153234571Y-116277571D01*
X153198285Y-116350142D01*
X153162000Y-116495285D01*
X153162000Y-116604142D01*
X153198285Y-116749285D01*
X153234571Y-116821857D01*
X153307142Y-116894428D01*
X153416000Y-116930714D01*
X153597428Y-116930714D01*
X150259142Y-83402714D02*
X150114000Y-83402714D01*
X150041428Y-83366428D01*
X150005142Y-83330142D01*
X149932571Y-83221285D01*
X149896285Y-83076142D01*
X149896285Y-82785857D01*
X149932571Y-82713285D01*
X149968857Y-82677000D01*
X150041428Y-82640714D01*
X150186571Y-82640714D01*
X150259142Y-82677000D01*
X150295428Y-82713285D01*
X150331714Y-82785857D01*
X150331714Y-82967285D01*
X150295428Y-83039857D01*
X150259142Y-83076142D01*
X150186571Y-83112428D01*
X150041428Y-83112428D01*
X149968857Y-83076142D01*
X149932571Y-83039857D01*
X149896285Y-82967285D01*
X164882285Y-116713000D02*
X164519428Y-116713000D01*
X164954857Y-116930714D02*
X164700857Y-116168714D01*
X164446857Y-116930714D01*
X163793714Y-116930714D02*
X164229142Y-116930714D01*
X164011428Y-116930714D02*
X164011428Y-116168714D01*
X164084000Y-116277571D01*
X164156571Y-116350142D01*
X164229142Y-116386428D01*
X152726571Y-82967285D02*
X152799142Y-82931000D01*
X152835428Y-82894714D01*
X152871714Y-82822142D01*
X152871714Y-82785857D01*
X152835428Y-82713285D01*
X152799142Y-82677000D01*
X152726571Y-82640714D01*
X152581428Y-82640714D01*
X152508857Y-82677000D01*
X152472571Y-82713285D01*
X152436285Y-82785857D01*
X152436285Y-82822142D01*
X152472571Y-82894714D01*
X152508857Y-82931000D01*
X152581428Y-82967285D01*
X152726571Y-82967285D01*
X152799142Y-83003571D01*
X152835428Y-83039857D01*
X152871714Y-83112428D01*
X152871714Y-83257571D01*
X152835428Y-83330142D01*
X152799142Y-83366428D01*
X152726571Y-83402714D01*
X152581428Y-83402714D01*
X152508857Y-83366428D01*
X152472571Y-83330142D01*
X152436285Y-83257571D01*
X152436285Y-83112428D01*
X152472571Y-83039857D01*
X152508857Y-83003571D01*
X152581428Y-82967285D01*
X147719142Y-83402714D02*
X148154571Y-83402714D01*
X147936857Y-83402714D02*
X147936857Y-82640714D01*
X148009428Y-82749571D01*
X148082000Y-82822142D01*
X148154571Y-82858428D01*
X147247428Y-82640714D02*
X147174857Y-82640714D01*
X147102285Y-82677000D01*
X147066000Y-82713285D01*
X147029714Y-82785857D01*
X146993428Y-82931000D01*
X146993428Y-83112428D01*
X147029714Y-83257571D01*
X147066000Y-83330142D01*
X147102285Y-83366428D01*
X147174857Y-83402714D01*
X147247428Y-83402714D01*
X147320000Y-83366428D01*
X147356285Y-83330142D01*
X147392571Y-83257571D01*
X147428857Y-83112428D01*
X147428857Y-82931000D01*
X147392571Y-82785857D01*
X147356285Y-82713285D01*
X147320000Y-82677000D01*
X147247428Y-82640714D01*
X142639142Y-83402714D02*
X143074571Y-83402714D01*
X142856857Y-83402714D02*
X142856857Y-82640714D01*
X142929428Y-82749571D01*
X143002000Y-82822142D01*
X143074571Y-82858428D01*
X142348857Y-82713285D02*
X142312571Y-82677000D01*
X142240000Y-82640714D01*
X142058571Y-82640714D01*
X141986000Y-82677000D01*
X141949714Y-82713285D01*
X141913428Y-82785857D01*
X141913428Y-82858428D01*
X141949714Y-82967285D01*
X142385142Y-83402714D01*
X141913428Y-83402714D01*
X167422285Y-116713000D02*
X167059428Y-116713000D01*
X167494857Y-116930714D02*
X167240857Y-116168714D01*
X166986857Y-116930714D01*
X166769142Y-116241285D02*
X166732857Y-116205000D01*
X166660285Y-116168714D01*
X166478857Y-116168714D01*
X166406285Y-116205000D01*
X166370000Y-116241285D01*
X166333714Y-116313857D01*
X166333714Y-116386428D01*
X166370000Y-116495285D01*
X166805428Y-116930714D01*
X166333714Y-116930714D01*
X169962285Y-116713000D02*
X169599428Y-116713000D01*
X170034857Y-116930714D02*
X169780857Y-116168714D01*
X169526857Y-116930714D01*
X169345428Y-116168714D02*
X168873714Y-116168714D01*
X169127714Y-116459000D01*
X169018857Y-116459000D01*
X168946285Y-116495285D01*
X168910000Y-116531571D01*
X168873714Y-116604142D01*
X168873714Y-116785571D01*
X168910000Y-116858142D01*
X168946285Y-116894428D01*
X169018857Y-116930714D01*
X169236571Y-116930714D01*
X169309142Y-116894428D01*
X169345428Y-116858142D01*
X133259285Y-83366428D02*
X133150428Y-83402714D01*
X132969000Y-83402714D01*
X132896428Y-83366428D01*
X132860142Y-83330142D01*
X132823857Y-83257571D01*
X132823857Y-83185000D01*
X132860142Y-83112428D01*
X132896428Y-83076142D01*
X132969000Y-83039857D01*
X133114142Y-83003571D01*
X133186714Y-82967285D01*
X133223000Y-82931000D01*
X133259285Y-82858428D01*
X133259285Y-82785857D01*
X133223000Y-82713285D01*
X133186714Y-82677000D01*
X133114142Y-82640714D01*
X132932714Y-82640714D01*
X132823857Y-82677000D01*
X132497285Y-83402714D02*
X132497285Y-82640714D01*
X132315857Y-82640714D01*
X132207000Y-82677000D01*
X132134428Y-82749571D01*
X132098142Y-82822142D01*
X132061857Y-82967285D01*
X132061857Y-83076142D01*
X132098142Y-83221285D01*
X132134428Y-83293857D01*
X132207000Y-83366428D01*
X132315857Y-83402714D01*
X132497285Y-83402714D01*
X131771571Y-83185000D02*
X131408714Y-83185000D01*
X131844142Y-83402714D02*
X131590142Y-82640714D01*
X131336142Y-83402714D01*
X142149285Y-116930714D02*
X142149285Y-116168714D01*
X141641285Y-116168714D02*
X141496142Y-116168714D01*
X141423571Y-116205000D01*
X141351000Y-116277571D01*
X141314714Y-116422714D01*
X141314714Y-116676714D01*
X141351000Y-116821857D01*
X141423571Y-116894428D01*
X141496142Y-116930714D01*
X141641285Y-116930714D01*
X141713857Y-116894428D01*
X141786428Y-116821857D01*
X141822714Y-116676714D01*
X141822714Y-116422714D01*
X141786428Y-116277571D01*
X141713857Y-116205000D01*
X141641285Y-116168714D01*
X140988142Y-116930714D02*
X140988142Y-116422714D01*
X140988142Y-116567857D02*
X140951857Y-116495285D01*
X140915571Y-116459000D01*
X140843000Y-116422714D01*
X140770428Y-116422714D01*
X140226142Y-116894428D02*
X140298714Y-116930714D01*
X140443857Y-116930714D01*
X140516428Y-116894428D01*
X140552714Y-116821857D01*
X140552714Y-116531571D01*
X140516428Y-116459000D01*
X140443857Y-116422714D01*
X140298714Y-116422714D01*
X140226142Y-116459000D01*
X140189857Y-116531571D01*
X140189857Y-116604142D01*
X140552714Y-116676714D01*
X139972142Y-116422714D02*
X139681857Y-116422714D01*
X139863285Y-116930714D02*
X139863285Y-116277571D01*
X139827000Y-116205000D01*
X139754428Y-116168714D01*
X139681857Y-116168714D01*
X159112857Y-82640714D02*
X159258000Y-82640714D01*
X159330571Y-82677000D01*
X159366857Y-82713285D01*
X159439428Y-82822142D01*
X159475714Y-82967285D01*
X159475714Y-83257571D01*
X159439428Y-83330142D01*
X159403142Y-83366428D01*
X159330571Y-83402714D01*
X159185428Y-83402714D01*
X159112857Y-83366428D01*
X159076571Y-83330142D01*
X159040285Y-83257571D01*
X159040285Y-83076142D01*
X159076571Y-83003571D01*
X159112857Y-82967285D01*
X159185428Y-82931000D01*
X159330571Y-82931000D01*
X159403142Y-82967285D01*
X159439428Y-83003571D01*
X159475714Y-83076142D01*
M02*
