M48
; DRILL file {KiCad (6.0.0-0)} date Friday, September 02, 2022 at 08:24:42 AM
; FORMAT={-:-/ absolute / inch / decimal}
; #@! TF.CreationDate,2022-09-02T08:24:42-04:00
; #@! TF.GenerationSoftware,Kicad,Pcbnew,(6.0.0-0)
; #@! TF.FileFunction,Plated,1,2,PTH
FMAT,2
INCH
; #@! TA.AperFunction,Plated,PTH,ViaDrill
T1C0.0157
; #@! TA.AperFunction,Plated,PTH,ComponentDrill
T2C0.0300
; #@! TA.AperFunction,Plated,PTH,ComponentDrill
T3C0.0350
; #@! TA.AperFunction,Plated,PTH,ComponentDrill
T4C0.0394
; #@! TA.AperFunction,Plated,PTH,ComponentDrill
T5C0.0400
; #@! TA.AperFunction,Plated,PTH,ComponentDrill
T6C0.0791
; #@! TA.AperFunction,Plated,PTH,ComponentDrill
T7C0.1200
%
G90
G05
T1
X4.4515Y-2.8983
T2
X4.77Y-3.675
X4.77Y-3.775
X4.77Y-3.875
X4.77Y-3.975
X4.77Y-4.075
X4.77Y-4.175
X4.77Y-4.275
X4.77Y-4.375
X4.77Y-4.475
X4.87Y-3.675
X4.87Y-3.775
X4.87Y-3.875
X4.87Y-3.975
X4.87Y-4.075
X4.87Y-4.175
X4.87Y-4.275
X4.87Y-4.375
X4.87Y-4.475
X4.97Y-3.675
X4.97Y-3.775
X4.97Y-3.875
X4.97Y-3.975
X4.97Y-4.075
X4.97Y-4.175
X4.97Y-4.275
X4.97Y-4.375
X4.97Y-4.475
X5.07Y-3.675
X5.07Y-3.775
X5.07Y-3.875
X5.07Y-3.975
X5.07Y-4.075
X5.07Y-4.175
X5.07Y-4.275
X5.07Y-4.375
X5.07Y-4.475
X5.17Y-3.675
X5.17Y-3.775
X5.17Y-3.875
X5.17Y-3.975
X5.17Y-4.075
X5.17Y-4.175
X5.17Y-4.275
X5.17Y-4.375
X5.17Y-4.475
X5.27Y-3.675
X5.27Y-3.775
X5.27Y-3.875
X5.27Y-3.975
X5.27Y-4.075
X5.27Y-4.175
X5.27Y-4.275
X5.27Y-4.375
X5.27Y-4.475
X5.37Y-3.675
X5.37Y-3.775
X5.37Y-3.875
X5.37Y-3.975
X5.37Y-4.075
X5.37Y-4.175
X5.37Y-4.275
X5.37Y-4.375
X5.37Y-4.475
X5.47Y-3.675
X5.47Y-3.775
X5.47Y-3.875
X5.47Y-3.975
X5.47Y-4.075
X5.47Y-4.175
X5.47Y-4.275
X5.47Y-4.375
X5.47Y-4.475
X5.57Y-3.675
X5.57Y-3.775
X5.57Y-3.875
X5.57Y-3.975
X5.57Y-4.075
X5.57Y-4.175
X5.57Y-4.275
X5.57Y-4.375
X5.57Y-4.475
X5.67Y-3.675
X5.67Y-3.775
X5.67Y-3.875
X5.67Y-3.975
X5.67Y-4.075
X5.67Y-4.175
X5.67Y-4.275
X5.67Y-4.375
X5.67Y-4.475
X5.77Y-3.675
X5.77Y-3.775
X5.77Y-3.875
X5.77Y-3.975
X5.77Y-4.075
X5.77Y-4.175
X5.77Y-4.275
X5.77Y-4.375
X5.77Y-4.475
X5.87Y-3.675
X5.87Y-3.775
X5.87Y-3.875
X5.87Y-3.975
X5.87Y-4.075
X5.87Y-4.175
X5.87Y-4.275
X5.87Y-4.375
X5.87Y-4.475
X5.97Y-3.675
X5.97Y-3.775
X5.97Y-3.875
X5.97Y-3.975
X5.97Y-4.075
X5.97Y-4.175
X5.97Y-4.275
X5.97Y-4.375
X5.97Y-4.475
X6.07Y-3.675
X6.07Y-3.775
X6.07Y-3.875
X6.07Y-3.975
X6.07Y-4.075
X6.07Y-4.175
X6.07Y-4.275
X6.07Y-4.375
X6.07Y-4.475
X6.17Y-3.675
X6.17Y-3.775
X6.17Y-3.875
X6.17Y-3.975
X6.17Y-4.075
X6.17Y-4.175
X6.17Y-4.275
X6.17Y-4.375
X6.17Y-4.475
X6.27Y-3.675
X6.27Y-3.775
X6.27Y-3.875
X6.27Y-3.975
X6.27Y-4.075
X6.27Y-4.175
X6.27Y-4.275
X6.27Y-4.375
X6.27Y-4.475
X6.37Y-3.675
X6.37Y-3.775
X6.37Y-3.875
X6.37Y-3.975
X6.37Y-4.075
X6.37Y-4.175
X6.37Y-4.275
X6.37Y-4.375
X6.37Y-4.475
X6.47Y-3.675
X6.47Y-3.775
X6.47Y-3.875
X6.47Y-3.975
X6.47Y-4.075
X6.47Y-4.175
X6.47Y-4.275
X6.47Y-4.375
X6.47Y-4.475
X6.57Y-3.675
X6.57Y-3.775
X6.57Y-3.875
X6.57Y-3.975
X6.57Y-4.075
X6.57Y-4.175
X6.57Y-4.275
X6.57Y-4.375
X6.57Y-4.475
X6.67Y-3.675
X6.67Y-3.775
X6.67Y-3.875
X6.67Y-3.975
X6.67Y-4.075
X6.67Y-4.175
X6.67Y-4.275
X6.67Y-4.375
X6.67Y-4.475
T3
X4.67Y-2.575
X4.77Y-2.575
X4.77Y-5.175
X4.87Y-5.175
X5.47Y-2.575
X5.57Y-2.575
X5.57Y-5.175
X5.67Y-5.175
X6.27Y-2.575
X6.37Y-2.575
X6.37Y-5.175
X6.47Y-5.175
X7.07Y-2.575
X7.17Y-2.575
X7.17Y-5.175
X7.2578Y-3.375
X7.2578Y-3.475
X7.2578Y-4.275
X7.2578Y-4.375
X7.27Y-5.175
T4
X5.11Y-3.175
X5.21Y-3.175
X5.31Y-3.175
X5.41Y-3.175
X5.51Y-3.175
X5.5698Y-4.675
X5.61Y-3.175
X5.6698Y-4.675
X5.71Y-3.175
X5.7698Y-4.675
X5.81Y-3.175
X5.8698Y-4.675
X5.91Y-3.175
X5.9698Y-4.675
X6.01Y-3.175
X6.0698Y-4.675
X6.1698Y-4.675
X6.17Y-3.175
X6.27Y-3.175
X6.37Y-3.175
X6.37Y-4.675
X6.47Y-3.175
X6.47Y-4.675
X6.57Y-3.175
X6.57Y-4.675
X6.67Y-3.175
X6.67Y-4.675
X6.77Y-3.175
X6.77Y-4.675
X6.82Y-3.775
X6.82Y-4.375
X6.87Y-3.175
X6.87Y-4.675
T5
X5.11Y-2.975
X5.21Y-2.975
X5.31Y-2.975
X5.41Y-2.975
X5.47Y-4.875
X5.51Y-2.975
X5.57Y-4.875
X5.61Y-2.975
X5.67Y-4.875
X5.71Y-2.975
X5.77Y-4.875
X5.81Y-2.975
X5.87Y-4.875
X5.91Y-2.975
X5.97Y-4.875
X6.01Y-2.975
X6.07Y-4.875
X6.17Y-2.975
X6.17Y-4.875
X6.27Y-2.975
X6.37Y-2.975
X6.37Y-4.875
X6.47Y-2.975
X6.47Y-4.875
X6.57Y-2.975
X6.57Y-4.875
X6.67Y-2.975
X6.67Y-4.875
X6.77Y-2.975
X6.77Y-4.875
X6.87Y-2.975
X6.87Y-4.875
T6
X4.57Y-2.375
X4.57Y-5.375
X4.97Y-2.375
X4.97Y-5.375
X5.37Y-2.375
X5.37Y-5.375
X5.77Y-2.375
X5.77Y-5.375
X6.17Y-2.375
X6.17Y-5.375
X6.57Y-2.375
X6.57Y-5.375
X6.97Y-2.375
X6.97Y-5.375
X7.37Y-2.375
X7.37Y-5.375
X7.4578Y-3.275
X7.4578Y-3.675
X7.4578Y-4.175
X7.4578Y-4.575
T7
X4.92Y-4.875
X4.97Y-2.975
X6.97Y-3.575
T0
M30
