%TF.GenerationSoftware,KiCad,Pcbnew,(6.0.0-0)*%
%TF.CreationDate,2022-09-02T08:24:46-04:00*%
%TF.ProjectId,bnc_shield,626e635f-7368-4696-956c-642e6b696361,rev?*%
%TF.SameCoordinates,Original*%
%TF.FileFunction,Soldermask,Bot*%
%TF.FilePolarity,Negative*%
%FSLAX46Y46*%
G04 Gerber Fmt 4.6, Leading zero omitted, Abs format (unit mm)*
G04 Created by KiCad (PCBNEW (6.0.0-0)) date 2022-09-02 08:24:46*
%MOMM*%
%LPD*%
G01*
G04 APERTURE LIST*
%ADD10C,0.381000*%
%ADD11O,1.727200X2.032000*%
%ADD12C,4.064000*%
%ADD13C,1.524000*%
%ADD14O,1.600000X2.500000*%
%ADD15O,3.500000X7.000000*%
%ADD16R,1.700000X1.700000*%
%ADD17O,1.700000X1.700000*%
%ADD18O,2.500000X1.600000*%
%ADD19O,7.000000X3.500000*%
G04 APERTURE END LIST*
D10*
X161217428Y-86043770D02*
X160128857Y-86043770D01*
X161435142Y-86696912D02*
X160673142Y-84410912D01*
X159911142Y-86696912D01*
X159149142Y-86696912D02*
X159149142Y-85172912D01*
X159149142Y-85608341D02*
X159040285Y-85390627D01*
X158931428Y-85281770D01*
X158713714Y-85172912D01*
X158496000Y-85172912D01*
X156754285Y-86696912D02*
X156754285Y-84410912D01*
X156754285Y-86588055D02*
X156972000Y-86696912D01*
X157407428Y-86696912D01*
X157625142Y-86588055D01*
X157734000Y-86479198D01*
X157842857Y-86261484D01*
X157842857Y-85608341D01*
X157734000Y-85390627D01*
X157625142Y-85281770D01*
X157407428Y-85172912D01*
X156972000Y-85172912D01*
X156754285Y-85281770D01*
X154686000Y-85172912D02*
X154686000Y-86696912D01*
X155665714Y-85172912D02*
X155665714Y-86370341D01*
X155556857Y-86588055D01*
X155339142Y-86696912D01*
X155012571Y-86696912D01*
X154794857Y-86588055D01*
X154686000Y-86479198D01*
X153597428Y-86696912D02*
X153597428Y-85172912D01*
X153597428Y-84410912D02*
X153706285Y-84519770D01*
X153597428Y-84628627D01*
X153488571Y-84519770D01*
X153597428Y-84410912D01*
X153597428Y-84628627D01*
X152508857Y-85172912D02*
X152508857Y-86696912D01*
X152508857Y-85390627D02*
X152400000Y-85281770D01*
X152182285Y-85172912D01*
X151855714Y-85172912D01*
X151638000Y-85281770D01*
X151529142Y-85499484D01*
X151529142Y-86696912D01*
X150114000Y-86696912D02*
X150331714Y-86588055D01*
X150440571Y-86479198D01*
X150549428Y-86261484D01*
X150549428Y-85608341D01*
X150440571Y-85390627D01*
X150331714Y-85281770D01*
X150114000Y-85172912D01*
X149787428Y-85172912D01*
X149569714Y-85281770D01*
X149460857Y-85390627D01*
X149352000Y-85608341D01*
X149352000Y-86261484D01*
X149460857Y-86479198D01*
X149569714Y-86588055D01*
X149787428Y-86696912D01*
X150114000Y-86696912D01*
X145868571Y-85499484D02*
X145542000Y-85608341D01*
X145433142Y-85717198D01*
X145324285Y-85934912D01*
X145324285Y-86261484D01*
X145433142Y-86479198D01*
X145542000Y-86588055D01*
X145759714Y-86696912D01*
X146630571Y-86696912D01*
X146630571Y-84410912D01*
X145868571Y-84410912D01*
X145650857Y-84519770D01*
X145542000Y-84628627D01*
X145433142Y-84846341D01*
X145433142Y-85064055D01*
X145542000Y-85281770D01*
X145650857Y-85390627D01*
X145868571Y-85499484D01*
X146630571Y-85499484D01*
X144344571Y-86696912D02*
X144344571Y-84410912D01*
X143038285Y-86696912D01*
X143038285Y-84410912D01*
X140643428Y-86479198D02*
X140752285Y-86588055D01*
X141078857Y-86696912D01*
X141296571Y-86696912D01*
X141623142Y-86588055D01*
X141840857Y-86370341D01*
X141949714Y-86152627D01*
X142058571Y-85717198D01*
X142058571Y-85390627D01*
X141949714Y-84955198D01*
X141840857Y-84737484D01*
X141623142Y-84519770D01*
X141296571Y-84410912D01*
X141078857Y-84410912D01*
X140752285Y-84519770D01*
X140643428Y-84628627D01*
X138030857Y-86588055D02*
X137704285Y-86696912D01*
X137160000Y-86696912D01*
X136942285Y-86588055D01*
X136833428Y-86479198D01*
X136724571Y-86261484D01*
X136724571Y-86043770D01*
X136833428Y-85826055D01*
X136942285Y-85717198D01*
X137160000Y-85608341D01*
X137595428Y-85499484D01*
X137813142Y-85390627D01*
X137922000Y-85281770D01*
X138030857Y-85064055D01*
X138030857Y-84846341D01*
X137922000Y-84628627D01*
X137813142Y-84519770D01*
X137595428Y-84410912D01*
X137051142Y-84410912D01*
X136724571Y-84519770D01*
X135744857Y-86696912D02*
X135744857Y-84410912D01*
X134765142Y-86696912D02*
X134765142Y-85499484D01*
X134874000Y-85281770D01*
X135091714Y-85172912D01*
X135418285Y-85172912D01*
X135636000Y-85281770D01*
X135744857Y-85390627D01*
X133676571Y-86696912D02*
X133676571Y-85172912D01*
X133676571Y-84410912D02*
X133785428Y-84519770D01*
X133676571Y-84628627D01*
X133567714Y-84519770D01*
X133676571Y-84410912D01*
X133676571Y-84628627D01*
X131717142Y-86588055D02*
X131934857Y-86696912D01*
X132370285Y-86696912D01*
X132588000Y-86588055D01*
X132696857Y-86370341D01*
X132696857Y-85499484D01*
X132588000Y-85281770D01*
X132370285Y-85172912D01*
X131934857Y-85172912D01*
X131717142Y-85281770D01*
X131608285Y-85499484D01*
X131608285Y-85717198D01*
X132696857Y-85934912D01*
X130302000Y-86696912D02*
X130519714Y-86588055D01*
X130628571Y-86370341D01*
X130628571Y-84410912D01*
X128451428Y-86696912D02*
X128451428Y-84410912D01*
X128451428Y-86588055D02*
X128669142Y-86696912D01*
X129104571Y-86696912D01*
X129322285Y-86588055D01*
X129431142Y-86479198D01*
X129540000Y-86261484D01*
X129540000Y-85608341D01*
X129431142Y-85390627D01*
X129322285Y-85281770D01*
X129104571Y-85172912D01*
X128669142Y-85172912D01*
X128451428Y-85281770D01*
X158332714Y-89179944D02*
X158006142Y-89288801D01*
X157897285Y-89397658D01*
X157788428Y-89615372D01*
X157788428Y-89941944D01*
X157897285Y-90159658D01*
X158006142Y-90268515D01*
X158223857Y-90377372D01*
X159094714Y-90377372D01*
X159094714Y-88091372D01*
X158332714Y-88091372D01*
X158115000Y-88200230D01*
X158006142Y-88309087D01*
X157897285Y-88526801D01*
X157897285Y-88744515D01*
X158006142Y-88962230D01*
X158115000Y-89071087D01*
X158332714Y-89179944D01*
X159094714Y-89179944D01*
X157026428Y-88853372D02*
X156482142Y-90377372D01*
X155937857Y-88853372D02*
X156482142Y-90377372D01*
X156699857Y-90921658D01*
X156808714Y-91030515D01*
X157026428Y-91139372D01*
X152672142Y-88091372D02*
X152672142Y-89724230D01*
X152781000Y-90050801D01*
X152998714Y-90268515D01*
X153325285Y-90377372D01*
X153543000Y-90377372D01*
X150603857Y-90377372D02*
X150603857Y-89179944D01*
X150712714Y-88962230D01*
X150930428Y-88853372D01*
X151365857Y-88853372D01*
X151583571Y-88962230D01*
X150603857Y-90268515D02*
X150821571Y-90377372D01*
X151365857Y-90377372D01*
X151583571Y-90268515D01*
X151692428Y-90050801D01*
X151692428Y-89833087D01*
X151583571Y-89615372D01*
X151365857Y-89506515D01*
X150821571Y-89506515D01*
X150603857Y-89397658D01*
X149733000Y-88853372D02*
X148535571Y-88853372D01*
X149733000Y-90377372D01*
X148535571Y-90377372D01*
X147882428Y-88853372D02*
X146685000Y-88853372D01*
X147882428Y-90377372D01*
X146685000Y-90377372D01*
X144290142Y-88091372D02*
X143745857Y-90377372D01*
X143310428Y-88744515D01*
X142875000Y-90377372D01*
X142330714Y-88091372D01*
X140589000Y-90268515D02*
X140806714Y-90377372D01*
X141242142Y-90377372D01*
X141459857Y-90268515D01*
X141568714Y-90050801D01*
X141568714Y-89179944D01*
X141459857Y-88962230D01*
X141242142Y-88853372D01*
X140806714Y-88853372D01*
X140589000Y-88962230D01*
X140480142Y-89179944D01*
X140480142Y-89397658D01*
X141568714Y-89615372D01*
X139500428Y-90377372D02*
X139500428Y-88853372D01*
X139500428Y-88091372D02*
X139609285Y-88200230D01*
X139500428Y-88309087D01*
X139391571Y-88200230D01*
X139500428Y-88091372D01*
X139500428Y-88309087D01*
X138520714Y-90268515D02*
X138303000Y-90377372D01*
X137867571Y-90377372D01*
X137649857Y-90268515D01*
X137541000Y-90050801D01*
X137541000Y-89941944D01*
X137649857Y-89724230D01*
X137867571Y-89615372D01*
X138194142Y-89615372D01*
X138411857Y-89506515D01*
X138520714Y-89288801D01*
X138520714Y-89179944D01*
X138411857Y-88962230D01*
X138194142Y-88853372D01*
X137867571Y-88853372D01*
X137649857Y-88962230D01*
X136561285Y-90377372D02*
X136561285Y-88853372D01*
X136561285Y-89071087D02*
X136452428Y-88962230D01*
X136234714Y-88853372D01*
X135908142Y-88853372D01*
X135690428Y-88962230D01*
X135581571Y-89179944D01*
X135581571Y-90377372D01*
X135581571Y-89179944D02*
X135472714Y-88962230D01*
X135255000Y-88853372D01*
X134928428Y-88853372D01*
X134710714Y-88962230D01*
X134601857Y-89179944D01*
X134601857Y-90377372D01*
X132533571Y-90377372D02*
X132533571Y-89179944D01*
X132642428Y-88962230D01*
X132860142Y-88853372D01*
X133295571Y-88853372D01*
X133513285Y-88962230D01*
X132533571Y-90268515D02*
X132751285Y-90377372D01*
X133295571Y-90377372D01*
X133513285Y-90268515D01*
X133622142Y-90050801D01*
X133622142Y-89833087D01*
X133513285Y-89615372D01*
X133295571Y-89506515D01*
X132751285Y-89506515D01*
X132533571Y-89397658D01*
X131445000Y-88853372D02*
X131445000Y-90377372D01*
X131445000Y-89071087D02*
X131336142Y-88962230D01*
X131118428Y-88853372D01*
X130791857Y-88853372D01*
X130574142Y-88962230D01*
X130465285Y-89179944D01*
X130465285Y-90377372D01*
D11*
%TO.C,P1*%
X138938000Y-123825000D03*
X141478000Y-123825000D03*
X144018000Y-123825000D03*
X146558000Y-123825000D03*
X149098000Y-123825000D03*
X151638000Y-123825000D03*
X154178000Y-123825000D03*
X156718000Y-123825000D03*
%TD*%
%TO.C,P2*%
X161798000Y-123825000D03*
X164338000Y-123825000D03*
X166878000Y-123825000D03*
X169418000Y-123825000D03*
X171958000Y-123825000D03*
X174498000Y-123825000D03*
%TD*%
%TO.C,P3*%
X129794000Y-75565000D03*
X132334000Y-75565000D03*
X134874000Y-75565000D03*
X137414000Y-75565000D03*
X139954000Y-75565000D03*
X142494000Y-75565000D03*
X145034000Y-75565000D03*
X147574000Y-75565000D03*
X150114000Y-75565000D03*
X152654000Y-75565000D03*
%TD*%
%TO.C,P4*%
X156718000Y-75565000D03*
X159258000Y-75565000D03*
X161798000Y-75565000D03*
X164338000Y-75565000D03*
X166878000Y-75565000D03*
X169418000Y-75565000D03*
X171958000Y-75565000D03*
X174498000Y-75565000D03*
%TD*%
D12*
%TO.C,P5*%
X124968000Y-123825000D03*
%TD*%
%TO.C,P7*%
X126238000Y-75565000D03*
%TD*%
%TO.C,P8*%
X177038000Y-90805000D03*
%TD*%
D13*
%TO.C,REF\u002A\u002A*%
X121158000Y-93345000D03*
X123698000Y-93345000D03*
X126238000Y-93345000D03*
X128778000Y-93345000D03*
X121158000Y-95885000D03*
X123698000Y-95885000D03*
X126238000Y-95885000D03*
X128778000Y-95885000D03*
X121158000Y-98425000D03*
X123698000Y-98425000D03*
X126238000Y-98425000D03*
X128778000Y-98425000D03*
X121158000Y-100965000D03*
X123698000Y-100965000D03*
X126238000Y-100965000D03*
X128778000Y-100965000D03*
%TD*%
D14*
%TO.C,J10*%
X141478000Y-65405000D03*
X138938000Y-65405000D03*
D15*
X146558000Y-60325000D03*
X136398000Y-60325000D03*
%TD*%
D16*
%TO.C,J6*%
X141473000Y-118745000D03*
D17*
X144013000Y-118745000D03*
X146553000Y-118745000D03*
X149093000Y-118745000D03*
X151633000Y-118745000D03*
X154173000Y-118745000D03*
X156713000Y-118745000D03*
%TD*%
D16*
%TO.C,3 alt*%
X173228000Y-95885000D03*
%TD*%
D13*
%TO.C,REF\u002A\u002A*%
X161798000Y-103505000D03*
X164338000Y-103505000D03*
X166878000Y-103505000D03*
X169418000Y-103505000D03*
X161798000Y-106045000D03*
X164338000Y-106045000D03*
X166878000Y-106045000D03*
X169418000Y-106045000D03*
X161798000Y-108585000D03*
X164338000Y-108585000D03*
X166878000Y-108585000D03*
X169418000Y-108585000D03*
X161798000Y-111125000D03*
X164338000Y-111125000D03*
X166878000Y-111125000D03*
X169418000Y-111125000D03*
%TD*%
D14*
%TO.C,J8*%
X182118000Y-65405000D03*
D15*
X187198000Y-60325000D03*
X177038000Y-60325000D03*
D14*
X179578000Y-65405000D03*
%TD*%
D16*
%TO.C,J12*%
X161798000Y-118745000D03*
D17*
X164338000Y-118745000D03*
X166878000Y-118745000D03*
X169418000Y-118745000D03*
X171958000Y-118745000D03*
X174498000Y-118745000D03*
%TD*%
D13*
%TO.C,REF\u002A\u002A*%
X161798000Y-113665000D03*
X164338000Y-113665000D03*
X166878000Y-113665000D03*
X169418000Y-113665000D03*
%TD*%
D14*
%TO.C,J11*%
X121158000Y-65405000D03*
D15*
X126238000Y-60325000D03*
D14*
X118618000Y-65405000D03*
D15*
X116078000Y-60325000D03*
%TD*%
D18*
%TO.C,J7*%
X184348000Y-88265000D03*
D19*
X189428000Y-83185000D03*
X189428000Y-93345000D03*
D18*
X184348000Y-85725000D03*
%TD*%
D13*
%TO.C,REF\u002A\u002A*%
X131318000Y-113665000D03*
X133858000Y-113665000D03*
X136398000Y-113665000D03*
X138938000Y-113665000D03*
%TD*%
%TO.C,REF\u002A\u002A*%
X141478000Y-103505000D03*
X144018000Y-103505000D03*
X146558000Y-103505000D03*
X149098000Y-103505000D03*
X141478000Y-106045000D03*
X144018000Y-106045000D03*
X146558000Y-106045000D03*
X149098000Y-106045000D03*
X141478000Y-108585000D03*
X144018000Y-108585000D03*
X146558000Y-108585000D03*
X149098000Y-108585000D03*
X141478000Y-111125000D03*
X144018000Y-111125000D03*
X146558000Y-111125000D03*
X149098000Y-111125000D03*
%TD*%
D18*
%TO.C,J5*%
X184348000Y-111125000D03*
X184348000Y-108585000D03*
D19*
X189428000Y-116205000D03*
X189428000Y-106045000D03*
%TD*%
D13*
%TO.C,REF\u002A\u002A*%
X141478000Y-93345000D03*
X144018000Y-93345000D03*
X146558000Y-93345000D03*
X149098000Y-93345000D03*
X141478000Y-95885000D03*
X144018000Y-95885000D03*
X146558000Y-95885000D03*
X149098000Y-95885000D03*
X141478000Y-98425000D03*
X144018000Y-98425000D03*
X146558000Y-98425000D03*
X149098000Y-98425000D03*
X141478000Y-100965000D03*
X144018000Y-100965000D03*
X146558000Y-100965000D03*
X149098000Y-100965000D03*
%TD*%
D16*
%TO.C,J14*%
X156718000Y-80645000D03*
D17*
X159258000Y-80645000D03*
X161798000Y-80645000D03*
X164338000Y-80645000D03*
X166878000Y-80645000D03*
X169418000Y-80645000D03*
X171958000Y-80645000D03*
X174498000Y-80645000D03*
%TD*%
D13*
%TO.C,REF\u002A\u002A*%
X121158000Y-103505000D03*
X123698000Y-103505000D03*
X126238000Y-103505000D03*
X128778000Y-103505000D03*
X121158000Y-106045000D03*
X123698000Y-106045000D03*
X126238000Y-106045000D03*
X128778000Y-106045000D03*
X121158000Y-108585000D03*
X123698000Y-108585000D03*
X126238000Y-108585000D03*
X128778000Y-108585000D03*
X121158000Y-111125000D03*
X123698000Y-111125000D03*
X126238000Y-111125000D03*
X128778000Y-111125000D03*
%TD*%
D14*
%TO.C,J1*%
X121158000Y-131445000D03*
D15*
X116078000Y-136525000D03*
X126238000Y-136525000D03*
D14*
X123698000Y-131445000D03*
%TD*%
%TO.C,J4*%
X182118000Y-131445000D03*
D15*
X187198000Y-136525000D03*
D14*
X184658000Y-131445000D03*
D15*
X177038000Y-136525000D03*
%TD*%
D16*
%TO.C,A4 alt*%
X173228000Y-111125000D03*
%TD*%
D13*
%TO.C,REF\u002A\u002A*%
X151638000Y-113665000D03*
X154178000Y-113665000D03*
X156718000Y-113665000D03*
X159258000Y-113665000D03*
%TD*%
D14*
%TO.C,J3*%
X161798000Y-131445000D03*
D15*
X166878000Y-136525000D03*
D14*
X164338000Y-131445000D03*
D15*
X156718000Y-136525000D03*
%TD*%
D13*
%TO.C,REF\u002A\u002A*%
X151638000Y-93345000D03*
X154178000Y-93345000D03*
X156718000Y-93345000D03*
X159258000Y-93345000D03*
X151638000Y-95885000D03*
X154178000Y-95885000D03*
X156718000Y-95885000D03*
X159258000Y-95885000D03*
X151638000Y-98425000D03*
X154178000Y-98425000D03*
X156718000Y-98425000D03*
X159258000Y-98425000D03*
X151638000Y-100965000D03*
X154178000Y-100965000D03*
X156718000Y-100965000D03*
X159258000Y-100965000D03*
%TD*%
%TO.C,REF\u002A\u002A*%
X131318000Y-103505000D03*
X133858000Y-103505000D03*
X136398000Y-103505000D03*
X138938000Y-103505000D03*
X131318000Y-106045000D03*
X133858000Y-106045000D03*
X136398000Y-106045000D03*
X138938000Y-106045000D03*
X131318000Y-108585000D03*
X133858000Y-108585000D03*
X136398000Y-108585000D03*
X138938000Y-108585000D03*
X131318000Y-111125000D03*
X133858000Y-111125000D03*
X136398000Y-111125000D03*
X138938000Y-111125000D03*
%TD*%
D14*
%TO.C,J9*%
X161798000Y-65405000D03*
D15*
X156718000Y-60325000D03*
X166878000Y-60325000D03*
D14*
X159258000Y-65405000D03*
%TD*%
D13*
%TO.C,REF\u002A\u002A*%
X141478000Y-113665000D03*
X144018000Y-113665000D03*
X146558000Y-113665000D03*
X149098000Y-113665000D03*
%TD*%
D16*
%TO.C,J13*%
X129794000Y-80645000D03*
D17*
X132334000Y-80645000D03*
X134874000Y-80645000D03*
X137414000Y-80645000D03*
X139954000Y-80645000D03*
X142494000Y-80645000D03*
X145034000Y-80645000D03*
X147574000Y-80645000D03*
X150114000Y-80645000D03*
X152654000Y-80645000D03*
%TD*%
D13*
%TO.C,REF\u002A\u002A*%
X161798000Y-93345000D03*
X164338000Y-93345000D03*
X166878000Y-93345000D03*
X169418000Y-93345000D03*
X161798000Y-95885000D03*
X164338000Y-95885000D03*
X166878000Y-95885000D03*
X169418000Y-95885000D03*
X161798000Y-98425000D03*
X164338000Y-98425000D03*
X166878000Y-98425000D03*
X169418000Y-98425000D03*
X161798000Y-100965000D03*
X164338000Y-100965000D03*
X166878000Y-100965000D03*
X169418000Y-100965000D03*
%TD*%
D14*
%TO.C,J2*%
X141478000Y-131445000D03*
X144018000Y-131445000D03*
D15*
X146558000Y-136525000D03*
X136398000Y-136525000D03*
%TD*%
D13*
%TO.C,REF\u002A\u002A*%
X121158000Y-113665000D03*
X123698000Y-113665000D03*
X126238000Y-113665000D03*
X128778000Y-113665000D03*
%TD*%
%TO.C,REF\u002A\u002A*%
X151638000Y-103505000D03*
X154178000Y-103505000D03*
X156718000Y-103505000D03*
X159258000Y-103505000D03*
X151638000Y-106045000D03*
X154178000Y-106045000D03*
X156718000Y-106045000D03*
X159258000Y-106045000D03*
X151638000Y-108585000D03*
X154178000Y-108585000D03*
X156718000Y-108585000D03*
X159258000Y-108585000D03*
X151638000Y-111125000D03*
X154178000Y-111125000D03*
X156718000Y-111125000D03*
X159258000Y-111125000D03*
%TD*%
%TO.C,REF\u002A\u002A*%
X131318000Y-93345000D03*
X133858000Y-93345000D03*
X136398000Y-93345000D03*
X138938000Y-93345000D03*
X131318000Y-95885000D03*
X133858000Y-95885000D03*
X136398000Y-95885000D03*
X138938000Y-95885000D03*
X131318000Y-98425000D03*
X133858000Y-98425000D03*
X136398000Y-98425000D03*
X138938000Y-98425000D03*
X131318000Y-100965000D03*
X133858000Y-100965000D03*
X136398000Y-100965000D03*
X138938000Y-100965000D03*
%TD*%
M02*
